<svg width="120" height="121" viewBox="0 0 120 121" fill="none" xmlns="http://www.w3.org/2000/svg">
<g clip-path="url(#clip0_6322_378)">
<path d="M117.028 109.114V116.536C117.028 117.607 116.16 118.476 115.089 118.476H5.17095C4.09966 118.476 3.23132 117.607 3.23132 116.536V109.114C3.23132 108.043 4.09966 107.175 5.17095 107.175H115.088C116.16 107.174 117.028 108.043 117.028 109.114Z" fill="#FEFDFE"/>
<path d="M110.956 101.44V107.174H9.3031V101.44C9.3031 99.2971 11.0401 97.5604 13.1824 97.5604H107.076C109.219 97.5604 110.956 99.2971 110.956 101.44Z" fill="#F03B6B" fill-opacity="0.24"/>
<path d="M34.3788 91.8677V97.5604H16.1624V91.8677C16.1624 90.9128 16.9363 90.1389 17.8911 90.1389H32.6497C33.6049 90.1389 34.3788 90.9128 34.3788 91.8677Z" fill="#FEFDFE"/>
<path d="M16.1624 51.6912V45.9984H34.3788V51.6912C34.3788 52.646 33.6049 53.4199 32.6501 53.4199H17.8914C16.9363 53.4199 16.1624 52.646 16.1624 51.6912Z" fill="#FEFDFE"/>
<path d="M18.9452 53.4199H31.5957V90.1385H18.9452V53.4199Z" fill="#FEFDFE"/>
<path d="M69.2375 91.8677V97.5604H51.021V91.8677C51.021 90.9128 51.7949 90.1389 52.7497 90.1389H67.5084C68.4635 90.1389 69.2375 90.9128 69.2375 91.8677Z" fill="#FEFDFE"/>
<path d="M51.021 51.6912V45.9984H69.2375V51.6912C69.2375 52.646 68.4635 53.4199 67.5087 53.4199H52.7501C51.7953 53.4199 51.021 52.646 51.021 51.6912Z" fill="#FEFDFE"/>
<path d="M53.8043 53.4199H66.4548V90.1385H53.8043V53.4199Z" fill="#FEFDFE"/>
<path d="M104.097 91.8677V97.5604H85.8802V91.8677C85.8802 90.9128 86.6542 90.1389 87.609 90.1389H102.368C103.323 90.1389 104.097 90.9128 104.097 91.8677Z" fill="#FEFDFE"/>
<path d="M85.8802 51.6912V45.9984H104.097V51.6912C104.097 52.646 103.323 53.4199 102.368 53.4199H87.6093C86.6542 53.4199 85.8802 52.646 85.8802 51.6912Z" fill="#FEFDFE"/>
<path d="M88.6635 53.4199H101.314V90.1385H88.6635V53.4199Z" fill="#FEFDFE"/>
<path d="M13.4444 45.9985H106.815C108.909 45.9985 109.886 43.4045 108.313 42.0227L66.5694 5.35479C62.8859 2.1192 57.3737 2.1192 53.6901 5.35479L11.9462 42.0227C10.3729 43.4048 11.3504 45.9985 13.4444 45.9985Z" fill="#FEFDFE"/>
<path d="M60.1298 34.2101C64.6035 34.2101 68.2301 30.5834 68.2301 26.1097C68.2301 21.636 64.6035 18.0094 60.1298 18.0094C55.6561 18.0094 52.0294 21.636 52.0294 26.1097C52.0294 30.5834 55.6561 34.2101 60.1298 34.2101Z" fill="#F03B6B" fill-opacity="0.24"/>
<path d="M115.089 104.942H5.17043C2.87071 104.942 1 106.813 1 109.114V116.537C1 118.836 2.87071 120.707 5.17043 120.707H115.089C117.389 120.707 119.26 118.836 119.26 116.537V109.114C119.26 106.813 117.389 104.942 115.089 104.942ZM114.796 116.244H5.46332V109.406H114.796V116.244Z" fill="#9E1F4E"/>
<path d="M7.41003 100.88C7.41003 97.8348 9.8784 95.3665 12.9233 95.3665V105.152H7.41003V100.88Z" fill="#9E1F4E"/>
<path d="M106.304 95.3665C109.349 95.3665 111.817 97.8348 111.817 100.88V105.152H106.304V95.3665Z" fill="#9E1F4E"/>
<path d="M13.9315 91.8679V95.3375H13.1748C11.9594 95.3375 10.7724 95.7017 9.74001 96.3922C8.71489 97.0776 8.43922 98.4635 9.12459 99.4869C9.80996 100.515 11.1976 100.786 12.2192 100.102C12.519 99.9018 12.8398 99.8008 13.1748 99.8008H107.085C107.419 99.8008 107.74 99.9018 108.04 100.102C108.42 100.357 108.851 100.479 109.278 100.479C109.998 100.479 110.704 100.132 111.135 99.4869C111.82 98.4635 111.545 97.0773 110.519 96.3922C109.487 95.7017 108.3 95.3375 107.085 95.3375H106.328V91.8679C106.328 90.0961 105.152 88.6106 103.546 88.1055V55.4529C105.152 54.9481 106.328 53.4623 106.328 51.6905V48.2295H106.815C108.706 48.2295 110.361 47.0859 111.029 45.3144C111.695 43.5429 111.208 41.5936 109.787 40.3456L68.0426 3.67798C63.5286 -0.285009 56.7274 -0.281563 52.2168 3.67798L10.4726 40.3456C9.05154 41.594 8.56534 43.5433 9.23106 45.3144C9.89886 47.0859 11.5535 48.2295 13.4453 48.2295H13.9318V51.6905C13.9318 53.4623 15.1082 54.9481 16.7143 55.4529V88.1055C15.1078 88.6103 13.9315 90.0961 13.9315 91.8679ZM21.1776 55.6517H29.3651V87.9063H21.1776V55.6517ZM31.5966 92.37H32.1476V95.3289H18.3948V92.37H18.9458H31.5966ZM33.8284 88.1058V55.4526C35.4352 54.9474 36.6109 53.4619 36.6109 51.6905V48.2295H48.7893V51.6905C48.7893 53.4626 49.9661 54.9484 51.5739 55.4529V88.1048C49.9664 88.6096 48.7893 90.0951 48.7893 91.8672V95.3368H36.6109V91.8672C36.6109 90.0965 35.4349 88.611 33.8284 88.1058ZM67.0072 92.37V95.3289H53.2526V92.37H53.8053H66.4545H67.0072ZM64.2226 87.9067H56.0372V55.6521H64.223V87.9067H64.2226ZM67.0072 51.1884H66.4545H53.8053H53.2526V48.2299H67.0072V51.1884ZM71.4705 95.3375V91.8679C71.4705 90.0958 70.2938 88.6099 68.686 88.1055V55.4536C70.2934 54.9488 71.4705 53.4633 71.4705 51.6912V48.2302H83.6489V51.6912C83.6489 53.4626 84.825 54.9481 86.4314 55.4533V88.1065C84.8246 88.6117 83.6489 90.0971 83.6489 91.8686V95.3382H71.4705V95.3375ZM101.865 92.37V95.3289H88.1122V92.37H88.6632H101.314H101.865ZM99.0822 87.9067H90.8947V55.6521H99.0822V87.9067ZM101.865 51.1884H101.314H88.6632H88.1122V48.2299H101.865V51.1884ZM13.4191 43.7L55.1637 7.03245C56.5795 5.78749 58.3541 5.16691 60.1308 5.16691C61.9057 5.16691 63.6806 5.78921 65.0961 7.03245L106.815 43.7662C27.1739 43.7662 127.889 43.7662 13.4449 43.7662L13.4191 43.7ZM32.1476 48.2299V51.1884H31.5966H18.9458H18.3948V48.2299H32.1476Z" fill="#9E1F4E"/>
<path d="M60.1307 36.4418C65.8283 36.4418 70.4625 31.8076 70.4625 26.11C70.4625 20.4124 65.8283 15.7778 60.1307 15.7778C54.4331 15.7778 49.7971 20.4121 49.7971 26.1097C49.7971 31.8073 54.4331 36.4418 60.1307 36.4418ZM60.1307 20.2415C63.3666 20.2415 65.9992 22.8741 65.9992 26.11C65.9992 29.3459 63.3666 31.9785 60.1307 31.9785C56.893 31.9785 54.2604 29.3459 54.2604 26.11C54.2604 22.8741 56.893 20.2415 60.1307 20.2415Z" fill="#9E1F4E"/>
</g>
<defs>
<clipPath id="clip0_6322_378">
<rect width="120" height="120" fill="white" transform="translate(0 0.207031)"/>
</clipPath>
</defs>
</svg>
