<svg width="119" height="121" viewBox="0 0 119 121" fill="none" xmlns="http://www.w3.org/2000/svg">
<path d="M116.028 109.114V116.536C116.028 117.607 115.16 118.476 114.089 118.476H4.17095C3.09966 118.476 2.23132 117.607 2.23132 116.536V109.114C2.23132 108.043 3.09966 107.175 4.17095 107.175H114.088C115.16 107.174 116.028 108.043 116.028 109.114Z" fill="#FEFDFE"/>
<path d="M109.956 101.44V107.174H8.3031V101.44C8.3031 99.2971 10.0401 97.5604 12.1824 97.5604H106.076C108.219 97.5604 109.956 99.2971 109.956 101.44Z" fill="#00ADE1" fill-opacity="0.24"/>
<path d="M33.3788 91.8676V97.5604H15.1624V91.8676C15.1624 90.9128 15.9363 90.1389 16.8911 90.1389H31.6497C32.6049 90.1389 33.3788 90.9128 33.3788 91.8676Z" fill="#FEFDFE"/>
<path d="M15.1624 51.6912V45.9984H33.3788V51.6912C33.3788 52.646 32.6049 53.4199 31.6501 53.4199H16.8914C15.9363 53.4199 15.1624 52.646 15.1624 51.6912Z" fill="#FEFDFE"/>
<path d="M17.9452 53.4199H30.5957V90.1385H17.9452V53.4199Z" fill="#FEFDFE"/>
<path d="M68.2375 91.8676V97.5604H50.021V91.8676C50.021 90.9128 50.7949 90.1389 51.7497 90.1389H66.5084C67.4635 90.1389 68.2375 90.9128 68.2375 91.8676Z" fill="#FEFDFE"/>
<path d="M50.021 51.6912V45.9984H68.2375V51.6912C68.2375 52.646 67.4635 53.4199 66.5087 53.4199H51.7501C50.7953 53.4199 50.021 52.646 50.021 51.6912Z" fill="#FEFDFE"/>
<path d="M52.8043 53.4199H65.4548V90.1385H52.8043V53.4199Z" fill="#FEFDFE"/>
<path d="M103.097 91.8676V97.5604H84.8802V91.8676C84.8802 90.9128 85.6542 90.1389 86.609 90.1389H101.368C102.323 90.1389 103.097 90.9128 103.097 91.8676Z" fill="#FEFDFE"/>
<path d="M84.8802 51.6912V45.9984H103.097V51.6912C103.097 52.646 102.323 53.4199 101.368 53.4199H86.6093C85.6542 53.4199 84.8802 52.646 84.8802 51.6912Z" fill="#FEFDFE"/>
<path d="M87.6635 53.4199H100.314V90.1385H87.6635V53.4199Z" fill="#FEFDFE"/>
<path d="M12.4444 45.9985H105.815C107.909 45.9985 108.886 43.4045 107.313 42.0227L65.5694 5.35479C61.8859 2.1192 56.3737 2.1192 52.6901 5.35479L10.9462 42.0227C9.37288 43.4048 10.3504 45.9985 12.4444 45.9985Z" fill="#FEFDFE"/>
<path d="M59.1298 34.2101C63.6035 34.2101 67.2301 30.5834 67.2301 26.1097C67.2301 21.636 63.6035 18.0094 59.1298 18.0094C54.6561 18.0094 51.0294 21.636 51.0294 26.1097C51.0294 30.5834 54.6561 34.2101 59.1298 34.2101Z" fill="#00ADE1" fill-opacity="0.24"/>
<path d="M114.089 104.942H4.17043C1.87071 104.942 0 106.813 0 109.114V116.537C0 118.836 1.87071 120.707 4.17043 120.707H114.089C116.389 120.707 118.26 118.836 118.26 116.537V109.114C118.26 106.813 116.389 104.942 114.089 104.942ZM113.796 116.244H4.46332V109.406H113.796V116.244Z" fill="#00ADE1"/>
<path d="M6.41003 100.88C6.41003 97.8349 8.8784 95.3665 11.9233 95.3665V105.153H6.41003V100.88Z" fill="#00ADE1"/>
<path d="M105.304 95.3665C108.349 95.3665 110.817 97.8349 110.817 100.88V105.153H105.304V95.3665Z" fill="#00ADE1"/>
<path d="M12.9315 91.868V95.3375H12.1748C10.9594 95.3375 9.77236 95.7018 8.74001 96.3923C7.71489 97.0777 7.43922 98.4636 8.12459 99.487C8.80996 100.516 10.1976 100.786 11.2192 100.102C11.519 99.9018 11.8398 99.8009 12.1748 99.8009H106.085C106.419 99.8009 106.74 99.9018 107.04 100.102C107.42 100.357 107.851 100.479 108.278 100.479C108.998 100.479 109.704 100.132 110.135 99.487C110.82 98.4636 110.545 97.0773 109.519 96.3923C108.487 95.7018 107.3 95.3375 106.085 95.3375H105.328V91.868C105.328 90.0962 104.152 88.6107 102.546 88.1055V55.453C104.152 54.9482 105.328 53.4623 105.328 51.6905V48.2296H105.815C107.706 48.2296 109.361 47.0859 110.029 45.3144C110.695 43.543 110.208 41.5937 108.787 40.3456L67.0426 3.67805C62.5286 -0.284948 55.7274 -0.281502 51.2168 3.67805L9.47258 40.3456C8.05154 41.594 7.56534 43.5433 8.23106 45.3144C8.89886 47.0859 10.5535 48.2296 12.4453 48.2296H12.9318V51.6905C12.9318 53.4623 14.1082 54.9482 15.7143 55.453V88.1055C14.1078 88.6104 12.9315 90.0962 12.9315 91.868ZM20.1776 55.6518H28.3651V87.9064H20.1776V55.6518ZM30.5966 92.37H31.1476V95.3289H17.3948V92.37H17.9458H30.5966ZM32.8284 88.1059V55.4526C34.4352 54.9475 35.6109 53.462 35.6109 51.6905V48.2296H47.7893V51.6905C47.7893 53.4627 48.9661 54.9485 50.5739 55.453V88.1049C48.9664 88.6097 47.7893 90.0951 47.7893 91.8673V95.3369H35.6109V91.8673C35.6109 90.0965 34.4349 88.611 32.8284 88.1059ZM66.0072 92.37V95.3289H52.2526V92.37H52.8053H65.4545H66.0072ZM63.2226 87.9067H55.0372V55.6521H63.223V87.9067H63.2226ZM66.0072 51.1885H65.4545H52.8053H52.2526V48.2299H66.0072V51.1885ZM70.4705 95.3375V91.868C70.4705 90.0958 69.2938 88.61 67.686 88.1055V55.4537C69.2934 54.9489 70.4705 53.4634 70.4705 51.6912V48.2303H82.6489V51.6912C82.6489 53.4627 83.825 54.9482 85.4314 55.4533V88.1066C83.8246 88.6117 82.6489 90.0972 82.6489 91.8687V95.3382H70.4705V95.3375ZM100.865 92.37V95.3289H87.1122V92.37H87.6632H100.314H100.865ZM98.0822 87.9067H89.8947V55.6521H98.0822V87.9067ZM100.865 51.1885H100.314H87.6632H87.1122V48.2299H100.865V51.1885ZM12.4191 43.7001L54.1637 7.03251C55.5795 5.78755 57.3541 5.16697 59.1308 5.16697C60.9057 5.16697 62.6806 5.78928 64.0961 7.03251L105.815 43.7663C26.1739 43.7663 126.889 43.7663 12.4449 43.7663L12.4191 43.7001ZM31.1476 48.2299V51.1885H30.5966H17.9458H17.3948V48.2299H31.1476Z" fill="#00ADE1"/>
<path d="M59.1307 36.4419C64.8283 36.4419 69.4625 31.8077 69.4625 26.1101C69.4625 20.4125 64.8283 15.7779 59.1307 15.7779C53.4331 15.7779 48.7971 20.4121 48.7971 26.1097C48.7971 31.8073 53.4331 36.4419 59.1307 36.4419ZM59.1307 20.2416C62.3666 20.2416 64.9992 22.8741 64.9992 26.1101C64.9992 29.346 62.3666 31.9786 59.1307 31.9786C55.893 31.9786 53.2604 29.346 53.2604 26.1101C53.2604 22.8741 55.893 20.2416 59.1307 20.2416Z" fill="#00ADE1"/>
</svg>
