<svg width="118" height="121" viewBox="0 0 118 121" fill="none" xmlns="http://www.w3.org/2000/svg">
<path d="M1.82959 46.9067C1.82959 52.4937 14.1636 57.0263 29.3944 57.0263C44.6251 57.0263 56.959 52.4937 56.959 46.9067V30.9085H1.82959V46.9067Z" fill="white"/>
<path d="M1.82959 46.9067C1.82959 52.4937 14.1636 57.0263 29.3944 57.0263C44.6251 57.0263 56.959 52.4937 56.959 46.9067V30.9085H1.82959V46.9067Z" fill="#00ADE1" fill-opacity="0.24"/>
<path d="M111.578 110.923C111.578 115.19 102.195 118.639 90.6085 118.639C79.0219 118.639 69.639 115.19 69.639 110.923L69.6387 110.929V110.919V62.2114H69.6575C70.1281 58.1072 79.3247 54.8241 90.6111 54.8241C101.897 54.8241 111.085 58.1072 111.555 62.2114H111.574V110.919V110.929" fill="#FEFDFE"/>
<path d="M69.639 98.147C69.639 102.397 79.0219 105.845 90.6085 105.845C102.195 105.845 111.578 102.397 111.578 98.147V85.9766H69.639V98.147Z" fill="#FEFDFE"/>
<path d="M69.639 85.9643C69.639 90.2145 79.0219 93.6626 90.6085 93.6626C102.195 93.6626 111.578 90.2145 111.578 85.9643V73.7937H69.639V85.9643Z" fill="#FEFDFE"/>
<path d="M1.82959 108.282V30.9083H56.959V108.282" fill="white"/>
<path d="M1.82959 108.282V30.9083H56.959V108.282" fill="#00ADE1" fill-opacity="0.24"/>
<path d="M1.82959 108.275C1.82959 113.884 14.1636 118.417 29.3944 118.417C44.6251 118.417 56.959 113.884 56.959 108.275V108.282V30.9083H1.82959V108.282" fill="#FEFDFE"/>
<path d="M111.574 61.6128V73.7898C111.555 78.0385 102.189 81.4763 90.6111 81.4763C79.033 81.4763 69.6575 78.0385 69.6387 73.7898V61.6128H111.574Z" fill="#FEFDFE"/>
<path d="M111.574 61.9409C111.574 66.1899 102.199 69.6373 90.6111 69.6373C79.0236 69.6373 69.6387 66.1899 69.6387 61.9409C69.6387 61.8347 69.6481 61.7187 69.6575 61.6125C70.1281 57.5084 79.3247 54.2253 90.6111 54.2253C101.897 54.2253 111.085 57.5086 111.555 61.6125C111.565 61.719 111.574 61.8347 111.574 61.9409Z" fill="white"/>
<path d="M111.574 61.9409C111.574 66.1899 102.199 69.6373 90.6111 69.6373C79.0236 69.6373 69.6387 66.1899 69.6387 61.9409C69.6387 61.8347 69.6481 61.7187 69.6575 61.6125C70.1281 57.5084 79.3247 54.2253 90.6111 54.2253C101.897 54.2253 111.085 57.5086 111.555 61.6125C111.565 61.719 111.574 61.8347 111.574 61.9409Z" fill="#00ADE1" fill-opacity="0.24"/>
<path d="M90.6064 54.2255C104.725 54.2255 116.17 42.4841 116.17 28.0004C116.17 13.5166 104.725 1.77521 90.6064 1.77521C76.4878 1.77521 65.0424 13.5166 65.0424 28.0004C65.0424 42.4841 76.4878 54.2255 90.6064 54.2255Z" fill="white"/>
<path d="M91.2392 49.2327C102.417 49.2327 111.478 39.9368 111.478 28.4698C111.478 17.0029 102.417 7.70703 91.2392 7.70703C80.0614 7.70703 71 17.0029 71 28.4698C71 39.9368 80.0614 49.2327 91.2392 49.2327Z" fill="white"/>
<path d="M91.2392 49.2327C102.417 49.2327 111.478 39.9368 111.478 28.4698C111.478 17.0029 102.417 7.70703 91.2392 7.70703C80.0614 7.70703 71 17.0029 71 28.4698C71 39.9368 80.0614 49.2327 91.2392 49.2327Z" fill="#00ADE1" fill-opacity="0.24"/>
<path d="M88.0016 36.707L87.2242 25.7418H90.0229L90.707 34.2051H94.8118C97.2684 34.2051 98.0458 33.1858 98.0458 30.4059V20.707H101V30.1897C101 35.3171 99.072 36.707 94.3453 36.707H88.0016ZM82 36.707V20.707H90.7381C94.5008 20.707 95.6203 22.0661 95.6203 25.7727V31.4252H92.8216V26.236C92.8216 24.0429 92.1375 23.209 90.0229 23.209H84.9542V36.707H82Z" fill="#00ADE1"/>
<path d="M56.959 30.9082C56.959 36.4953 44.6251 41.0278 29.3944 41.0278C14.1636 41.0278 1.82959 36.4953 1.82959 30.9082C1.82959 25.3212 14.1636 20.7664 29.3944 20.7664C44.6251 20.7664 56.959 25.3212 56.959 30.9082Z" fill="white"/>
<path d="M56.959 30.9082C56.959 36.4953 44.6251 41.0278 29.3944 41.0278C14.1636 41.0278 1.82959 36.4953 1.82959 30.9082C1.82959 25.3212 14.1636 20.7664 29.3944 20.7664C44.6251 20.7664 56.959 25.3212 56.959 30.9082Z" fill="#00ADE1" fill-opacity="0.24"/>
<path d="M90.6064 0.351379C75.726 0.351379 63.6191 12.7543 63.6191 28.0001C63.6191 39.6584 70.7021 49.647 80.6874 53.7059C76.2563 54.5529 68.2147 57.0943 68.2147 61.6128V62.2114V110.929V110.935V110.936C68.2313 116.863 79.761 120.062 90.6088 120.062C101.464 120.062 113.002 116.859 113.002 110.923C113.002 110.89 113 110.857 112.998 110.825C112.998 102.92 112.998 72.9987 112.998 61.6128C112.998 61.5858 112.913 61.1426 112.881 61.0679C112.138 57.4116 106.985 54.9338 100.531 53.7036C110.514 49.643 117.594 39.6558 117.594 27.9999C117.594 12.7543 105.487 0.351379 90.6064 0.351379ZM71.0626 78.3985C75.1571 81.3455 83.0504 82.8999 90.6109 82.8999C98.1676 82.8999 106.057 81.3455 110.15 78.3971V85.9836C110.115 88.602 102.689 92.2386 90.6085 92.2386C78.4981 92.2386 71.0624 88.5842 71.0624 85.9643V78.3985H71.0626ZM71.0626 90.5879C75.1555 93.533 83.045 95.0865 90.6088 95.0865C98.1697 95.0865 106.057 93.5337 110.15 90.5902V98.1662C110.115 100.785 102.689 104.421 90.6088 104.421C78.4984 104.421 71.0626 100.767 71.0626 98.1469V90.5879ZM90.6085 117.215C78.4981 117.215 71.0624 113.55 71.0624 110.923C71.0612 110.922 71.0612 110.92 71.0624 110.919V102.77C75.1553 105.716 83.0448 107.269 90.6085 107.269C98.1695 107.269 106.056 105.716 110.15 102.773V110.929C110.15 110.951 110.15 110.973 110.151 110.995C110.019 113.616 102.609 117.215 90.6085 117.215ZM110.15 73.7834C110.139 76.4011 102.7 80.0522 90.6109 80.0522C78.5171 80.0522 71.0736 76.4011 71.0626 73.7895V66.5635C75.1557 69.5079 83.0462 71.0611 90.6109 71.0611C98.1718 71.0611 106.058 69.5082 110.15 66.5642V73.7834ZM110.1 62.2306C109.587 64.8209 102.28 68.213 90.6109 68.213C78.9359 68.213 71.6258 64.8209 71.1125 62.2304C71.6879 59.3708 79.6925 56.2477 90.6109 56.2477C101.525 56.2479 109.525 59.371 110.1 62.2306ZM90.6064 52.8017C77.2958 52.8017 66.467 41.6759 66.467 28.0004C66.467 14.3253 77.2958 3.1995 90.6064 3.1995C103.917 3.1995 114.746 14.3253 114.746 28.0004C114.746 41.6757 103.917 52.8017 90.6064 52.8017Z" fill="#00ADE1"/>
<path d="M90.6064 5.81372C78.6617 5.81372 68.9434 15.7665 68.9434 28.0004C68.9434 40.2343 78.662 50.187 90.6064 50.187C102.551 50.187 112.269 40.2343 112.269 28.0004C112.269 15.7665 102.551 5.81372 90.6064 5.81372ZM90.6064 47.3389C80.2316 47.3389 71.7913 38.664 71.7913 28.0004C71.7913 17.3368 80.2316 8.66185 90.6064 8.66185C100.981 8.66185 109.422 17.3368 109.422 28.0004C109.422 38.664 100.981 47.3389 90.6064 47.3389Z" fill="#00ADE1"/>
<path d="M29.3949 119.841C43.4377 119.841 58.3625 115.792 58.3824 108.289C58.3824 81.9197 58.3824 57.814 58.3824 30.9082C58.3824 23.3958 43.4476 19.3425 29.3949 19.3425C15.3423 19.3425 0.40625 23.3956 0.40625 30.9082V108.289C0.426172 115.792 15.3512 119.841 29.3949 119.841ZM29.3949 22.1902C44.7992 22.1902 55.5345 26.7846 55.5345 30.908C55.5345 35.0208 44.7992 39.6035 29.3949 39.6035C13.9895 39.6035 3.25414 35.0208 3.25414 30.908C3.25414 26.7849 13.9895 22.1902 29.3949 22.1902ZM3.25414 36.1179C8.25055 40.26 19.0578 42.4517 29.3949 42.4517C39.732 42.4517 50.5384 40.26 55.5345 36.1182C55.5345 36.4177 55.5345 47.1483 55.5345 46.9064C55.5345 51.0193 44.7992 55.602 29.3949 55.602C13.9895 55.602 3.25414 51.0193 3.25414 46.9064C3.25414 46.6845 3.25414 35.6602 3.25414 36.1179ZM3.25414 52.1164C8.25055 56.2585 19.0578 58.4501 29.3949 58.4501C39.732 58.4501 50.5384 56.2585 55.5345 52.1166V62.3103C55.5345 66.4231 44.7992 71.0058 29.3949 71.0058C13.9895 71.0058 3.25414 66.4231 3.25414 62.3103V52.1164ZM3.25414 67.5202C9.15523 72.4123 21.7377 73.8539 29.3949 73.8539C37.0527 73.8539 49.6337 72.4125 55.5345 67.5204V77.7141C55.5345 81.8269 44.7992 86.4096 29.3949 86.4096C13.9895 86.4096 3.25414 81.8269 3.25414 77.7141V67.5202ZM3.25414 82.924C8.25055 87.0661 19.0578 89.2578 29.3949 89.2578C39.732 89.2578 50.5384 87.0661 55.5345 82.9243V92.9939C55.5345 97.1178 44.7992 101.712 29.3949 101.712C13.9895 101.712 3.25414 97.118 3.25414 92.9939V82.924ZM3.25414 98.2139C8.25055 102.364 19.0578 104.56 29.3949 104.56C39.732 104.56 50.5384 102.364 55.5345 98.2142V108.274C55.5345 112.398 44.7992 116.993 29.3949 116.993C13.9895 116.993 3.25414 112.398 3.25414 108.274V98.2139Z" fill="#00ADE1"/>
</svg>
