<svg width="120" height="121" viewBox="0 0 120 121" fill="none" xmlns="http://www.w3.org/2000/svg">
<g clip-path="url(#clip0_6322_1697)">
<path d="M2.82959 46.9068C2.82959 52.4938 15.1636 57.0264 30.3944 57.0264C45.6251 57.0264 57.959 52.4938 57.959 46.9068V30.9086H2.82959V46.9068Z" fill="white"/>
<path d="M2.82959 46.9068C2.82959 52.4938 15.1636 57.0264 30.3944 57.0264C45.6251 57.0264 57.959 52.4938 57.959 46.9068V30.9086H2.82959V46.9068Z" fill="#F03B6B" fill-opacity="0.24"/>
<path d="M112.578 110.923C112.578 115.191 103.195 118.639 91.6085 118.639C80.0219 118.639 70.639 115.191 70.639 110.923L70.6387 110.929V110.919V62.2115H70.6575C71.1281 58.1073 80.3247 54.8242 91.6111 54.8242C102.897 54.8242 112.085 58.1073 112.555 62.2115H112.574V110.919V110.929" fill="#FEFDFE"/>
<path d="M70.639 98.147C70.639 102.397 80.0219 105.845 91.6085 105.845C103.195 105.845 112.578 102.397 112.578 98.147V85.9766H70.639V98.147Z" fill="#FEFDFE"/>
<path d="M70.639 85.9645C70.639 90.2146 80.0219 93.6627 91.6085 93.6627C103.195 93.6627 112.578 90.2146 112.578 85.9645V73.7938H70.639V85.9645Z" fill="#FEFDFE"/>
<path d="M2.82959 108.282V30.9083H57.959V108.282" fill="white"/>
<path d="M2.82959 108.282V30.9083H57.959V108.282" fill="#F03B6B" fill-opacity="0.24"/>
<path d="M2.82959 108.275C2.82959 113.884 15.1636 118.417 30.3944 118.417C45.6251 118.417 57.959 113.884 57.959 108.275V108.282V30.9083H2.82959V108.282" fill="#FEFDFE"/>
<path d="M112.574 61.6128V73.7898C112.555 78.0385 103.189 81.4763 91.6111 81.4763C80.033 81.4763 70.6575 78.0385 70.6387 73.7898V61.6128H112.574Z" fill="#FEFDFE"/>
<path d="M112.574 61.941C112.574 66.19 103.199 69.6374 91.6111 69.6374C80.0236 69.6374 70.6387 66.19 70.6387 61.941C70.6387 61.8348 70.6481 61.7188 70.6575 61.6126C71.1281 57.5085 80.3247 54.2253 91.6111 54.2253C102.897 54.2253 112.085 57.5087 112.555 61.6126C112.565 61.719 112.574 61.8348 112.574 61.941Z" fill="white"/>
<path d="M112.574 61.941C112.574 66.19 103.199 69.6374 91.6111 69.6374C80.0236 69.6374 70.6387 66.19 70.6387 61.941C70.6387 61.8348 70.6481 61.7188 70.6575 61.6126C71.1281 57.5085 80.3247 54.2253 91.6111 54.2253C102.897 54.2253 112.085 57.5087 112.555 61.6126C112.565 61.719 112.574 61.8348 112.574 61.941Z" fill="#F03B6B" fill-opacity="0.24"/>
<path d="M91.6064 54.2256C105.725 54.2256 117.17 42.4842 117.17 28.0004C117.17 13.5167 105.725 1.77527 91.6064 1.77527C77.4878 1.77527 66.0424 13.5167 66.0424 28.0004C66.0424 42.4842 77.4878 54.2256 91.6064 54.2256Z" fill="white"/>
<path d="M92.2392 49.2327C103.417 49.2327 112.478 39.9368 112.478 28.4698C112.478 17.0029 103.417 7.70703 92.2392 7.70703C81.0614 7.70703 72 17.0029 72 28.4698C72 39.9368 81.0614 49.2327 92.2392 49.2327Z" fill="white"/>
<path d="M92.2392 49.2327C103.417 49.2327 112.478 39.9368 112.478 28.4698C112.478 17.0029 103.417 7.70703 92.2392 7.70703C81.0614 7.70703 72 17.0029 72 28.4698C72 39.9368 81.0614 49.2327 92.2392 49.2327Z" fill="#F03B6B" fill-opacity="0.24"/>
<path d="M89.0016 36.707L88.2242 25.7418H91.0229L91.707 34.2051H95.8118C98.2684 34.2051 99.0458 33.1858 99.0458 30.4059V20.707H102V30.1897C102 35.3171 100.072 36.707 95.3453 36.707H89.0016ZM83 36.707V20.707H91.7381C95.5008 20.707 96.6203 22.0661 96.6203 25.7727V31.4252H93.8216V26.236C93.8216 24.0429 93.1375 23.209 91.0229 23.209H85.9542V36.707H83Z" fill="#9E1F4E"/>
<path d="M57.959 30.9084C57.959 36.4954 45.6251 41.028 30.3944 41.028C15.1636 41.028 2.82959 36.4954 2.82959 30.9084C2.82959 25.3213 15.1636 20.7665 30.3944 20.7665C45.6251 20.7665 57.959 25.3213 57.959 30.9084Z" fill="white"/>
<path d="M57.959 30.9084C57.959 36.4954 45.6251 41.028 30.3944 41.028C15.1636 41.028 2.82959 36.4954 2.82959 30.9084C2.82959 25.3213 15.1636 20.7665 30.3944 20.7665C45.6251 20.7665 57.959 25.3213 57.959 30.9084Z" fill="#F03B6B" fill-opacity="0.24"/>
<path d="M91.6064 0.35144C76.726 0.35144 64.6191 12.7543 64.6191 28.0002C64.6191 39.6585 71.7021 49.6471 81.6874 53.706C77.2563 54.553 69.2147 57.0943 69.2147 61.6128V62.2114V110.929V110.935V110.936C69.2313 116.863 80.761 120.062 91.6088 120.062C102.464 120.062 114.002 116.859 114.002 110.923C114.002 110.89 114 110.857 113.998 110.825C113.998 102.92 113.998 72.9988 113.998 61.6128C113.998 61.5859 113.913 61.1427 113.881 61.0679C113.138 57.4117 107.985 54.9339 101.531 53.7036C111.514 49.6431 118.594 39.6559 118.594 28C118.594 12.7543 106.487 0.35144 91.6064 0.35144ZM72.0626 78.3986C76.1571 81.3456 84.0504 82.9 91.6109 82.9C99.1676 82.9 107.057 81.3456 111.15 78.3971V85.9836C111.115 88.6021 103.689 92.2386 91.6085 92.2386C79.4981 92.2386 72.0624 88.5843 72.0624 85.9644V78.3986H72.0626ZM72.0626 90.5879C76.1555 93.5331 84.045 95.0865 91.6088 95.0865C99.1697 95.0865 107.057 93.5338 111.15 90.5903V98.1662C111.115 100.785 103.689 104.421 91.6088 104.421C79.4984 104.421 72.0626 100.767 72.0626 98.147V90.5879ZM91.6085 117.215C79.4981 117.215 72.0624 113.55 72.0624 110.923C72.0612 110.922 72.0612 110.92 72.0624 110.919V102.771C76.1553 105.716 84.0448 107.269 91.6085 107.269C99.1695 107.269 107.056 105.716 111.15 102.773V110.929C111.15 110.951 111.15 110.973 111.151 110.995C111.019 113.616 103.609 117.215 91.6085 117.215ZM111.15 73.7835C111.139 76.4012 103.7 80.0523 91.6109 80.0523C79.5171 80.0523 72.0736 76.4012 72.0626 73.7896V66.5636C76.1557 69.508 84.0462 71.0612 91.6109 71.0612C99.1718 71.0612 107.058 69.5082 111.15 66.5643V73.7835ZM111.1 62.2307C110.587 64.821 103.28 68.2131 91.6109 68.2131C79.9359 68.2131 72.6258 64.821 72.1125 62.2304C72.6879 59.3708 80.6925 56.2478 91.6109 56.2478C102.525 56.248 110.525 59.3711 111.1 62.2307ZM91.6064 52.8018C78.2958 52.8018 67.467 41.676 67.467 28.0004C67.467 14.3253 78.2958 3.19957 91.6064 3.19957C104.917 3.19957 115.746 14.3253 115.746 28.0004C115.746 41.6757 104.917 52.8018 91.6064 52.8018Z" fill="#9E1F4E"/>
<path d="M91.6064 5.81384C79.6617 5.81384 69.9434 15.7666 69.9434 28.0005C69.9434 40.2344 79.662 50.1871 91.6064 50.1871C103.551 50.1871 113.269 40.2344 113.269 28.0005C113.269 15.7666 103.551 5.81384 91.6064 5.81384ZM91.6064 47.339C81.2316 47.339 72.7913 38.6641 72.7913 28.0005C72.7913 17.3369 81.2316 8.66197 91.6064 8.66197C101.981 8.66197 110.422 17.3369 110.422 28.0005C110.422 38.6641 101.981 47.339 91.6064 47.339Z" fill="#9E1F4E"/>
<path d="M30.3949 119.841C44.4377 119.841 59.3625 115.792 59.3824 108.289C59.3824 81.9198 59.3824 57.8141 59.3824 30.9084C59.3824 23.3959 44.4476 19.3427 30.3949 19.3427C16.3423 19.3427 1.40625 23.3957 1.40625 30.9084V108.289C1.42617 115.792 16.3512 119.841 30.3949 119.841ZM30.3949 22.1903C45.7992 22.1903 56.5345 26.7848 56.5345 30.9081C56.5345 35.0209 45.7992 39.6037 30.3949 39.6037C14.9895 39.6037 4.25414 35.0209 4.25414 30.9081C4.25414 26.785 14.9895 22.1903 30.3949 22.1903ZM4.25414 36.118C9.25055 40.2602 20.0578 42.4518 30.3949 42.4518C40.732 42.4518 51.5384 40.2602 56.5345 36.1183C56.5345 36.4178 56.5345 47.1484 56.5345 46.9066C56.5345 51.0194 45.7992 55.6021 30.3949 55.6021C14.9895 55.6021 4.25414 51.0194 4.25414 46.9066C4.25414 46.6846 4.25414 35.6603 4.25414 36.118ZM4.25414 52.1165C9.25055 56.2586 20.0578 58.4502 30.3949 58.4502C40.732 58.4502 51.5384 56.2586 56.5345 52.1167V62.3104C56.5345 66.4232 45.7992 71.0059 30.3949 71.0059C14.9895 71.0059 4.25414 66.4232 4.25414 62.3104V52.1165ZM4.25414 67.5203C10.1552 72.4124 22.7377 73.8541 30.3949 73.8541C38.0527 73.8541 50.6337 72.4127 56.5345 67.5205V77.7142C56.5345 81.827 45.7992 86.4098 30.3949 86.4098C14.9895 86.4098 4.25414 81.827 4.25414 77.7142V67.5203ZM4.25414 82.9241C9.25055 87.0662 20.0578 89.2579 30.3949 89.2579C40.732 89.2579 51.5384 87.0662 56.5345 82.9244V92.9941C56.5345 97.1179 45.7992 101.713 30.3949 101.713C14.9895 101.713 4.25414 97.1181 4.25414 92.9941V82.9241ZM4.25414 98.2141C9.25055 102.364 20.0578 104.56 30.3949 104.56C40.732 104.56 51.5384 102.364 56.5345 98.2143V108.274C56.5345 112.398 45.7992 116.993 30.3949 116.993C14.9895 116.993 4.25414 112.398 4.25414 108.274V98.2141Z" fill="#9E1F4E"/>
</g>
<defs>
<clipPath id="clip0_6322_1697">
<rect width="120" height="120" fill="white" transform="translate(0 0.207031)"/>
</clipPath>
</defs>
</svg>
