<svg width="130" height="48" viewBox="0 0 130 48" fill="none" xmlns="http://www.w3.org/2000/svg">
<path d="M95.2402 10.2881C98.2821 10.2881 100.797 10.8014 102.689 11.9277H102.69C104.579 13.0438 105.93 14.6473 106.72 16.7061C107.484 18.6976 107.851 21.0247 107.851 23.6621V23.6826C107.851 26.374 107.38 28.7665 106.403 30.8311C105.436 32.9043 104.001 34.5299 102.105 35.6777L102.104 35.6797C100.207 36.8216 97.9224 37.3643 95.3008 37.3643C92.7327 37.3642 90.4651 36.8345 88.5381 35.7314C86.6172 34.6318 85.1434 33.0669 84.1289 31.0605C83.1161 29.0573 82.629 26.724 82.6289 24.0938V13.1172C82.6289 12.3497 82.831 11.5924 83.4072 11.0391L83.4082 11.04C83.9621 10.4941 84.6938 10.2881 85.4512 10.2881H95.2402ZM34.626 10.2881C36.4846 10.2881 38.142 10.4946 39.582 10.9268C41.0443 11.3656 42.2879 12.081 43.2793 13.0898C44.2912 14.1056 45.0147 15.4118 45.4756 16.9639H45.4746C45.9473 18.51 46.1719 20.3459 46.1719 22.4492V34.124C46.1718 34.8888 45.9643 35.6293 45.4092 36.1865L45.4082 36.1855C44.8578 36.7521 44.1097 36.9531 43.3496 36.9531H25.124C24.3596 36.9531 23.6202 36.744 23.0645 36.1865C22.5093 35.6293 22.3019 34.8888 22.3018 34.124V13.1172C22.3018 12.3496 22.5038 11.5924 23.0801 11.0391L23.0811 11.04C23.635 10.4941 24.3666 10.2881 25.124 10.2881H34.626ZM67.6357 10.2881C70.7373 10.2881 73.2917 10.7782 75.207 11.8535H75.208C77.1289 12.9248 78.5004 14.5012 79.2949 16.5508C80.0777 18.5226 80.4511 20.8758 80.4512 23.5791V23.6211C80.4511 26.3325 80.0488 28.7054 79.2061 30.709L79.2051 30.7119C78.3413 32.7497 76.9411 34.3188 75.0244 35.3877L75.0234 35.3867C73.1172 36.4573 70.6786 36.9531 67.7793 36.9531H61.0215C60.3134 36.9531 59.6607 36.7207 59.1416 36.2227L59.125 36.207L59.1104 36.1914C58.6197 35.6765 58.3839 35.0319 58.3838 34.3291C58.3839 33.6218 58.6147 32.9654 59.126 32.4521L59.1416 32.4365C59.6607 31.9382 60.3132 31.7061 61.0215 31.7061H67.5537C69.5534 31.706 70.9751 31.3737 71.9189 30.8164L71.9238 30.8145C72.8813 30.2557 73.5505 29.4374 73.9404 28.3096L73.9424 28.3037L74.0938 27.8311C74.4253 26.6934 74.6015 25.3028 74.6016 23.6416V23.6211C74.6016 21.6959 74.4026 20.136 74.0312 18.918L74.0283 18.9092C73.7022 17.803 73.0753 16.9997 72.1289 16.4473L72.1162 16.4404C71.1866 15.8808 69.6635 15.5362 67.4111 15.5361H63.373V18.4414C63.3731 19.7313 63.5725 20.4293 63.7871 20.7461C63.9046 20.9091 64.2472 21.1611 65.2402 21.1611H65.7109C66.3436 21.1612 66.9669 21.3248 67.4668 21.7559L67.4678 21.7549C67.4812 21.7658 67.4947 21.7779 67.5078 21.7891H67.5068C68.063 22.2639 68.2676 22.9326 68.2676 23.6006C68.2674 24.3649 67.9863 25.0532 67.3965 25.5615C67.3917 25.5657 67.3876 25.571 67.3828 25.5752L67.3818 25.5742C66.7971 26.0827 66.0404 26.2646 65.2607 26.2646H64.7285C63.2411 26.2646 61.9372 26.063 60.8604 25.6113L60.8486 25.6064C59.6778 25.0978 58.825 24.1933 58.2852 22.9785L58.2832 22.9736C57.7524 21.7627 57.5235 20.1572 57.5234 18.2354V13.1172C57.5235 12.3496 57.7255 11.5924 58.3018 11.0391L58.3027 11.04C58.8567 10.4941 59.5883 10.2881 60.3457 10.2881H67.6357ZM115.779 10.2881C118.745 10.2881 121.236 10.7827 123.182 11.8506C125.122 12.9158 126.544 14.48 127.424 16.5156C128.3 18.4985 128.718 20.8647 128.718 23.5791V23.6211C128.718 26.3344 128.308 28.7095 127.449 30.7148L127.448 30.7178C126.569 32.7573 125.145 34.3241 123.202 35.3906C121.256 36.4588 118.758 36.9531 115.779 36.9531H110.619C109.911 36.9531 109.257 36.7209 108.738 36.2227L108.707 36.1914C108.216 35.6765 107.981 35.0319 107.98 34.3291C107.981 33.6218 108.211 32.9654 108.723 32.4521L108.738 32.4365C109.257 31.938 109.911 31.7061 110.619 31.7061H115.554C117.625 31.706 119.107 31.3733 120.096 30.8096L120.101 30.8066C121.1 30.2428 121.79 29.4216 122.188 28.3008L122.19 28.2949C122.631 27.0798 122.868 25.5378 122.868 23.6416V23.6211C122.868 21.9485 122.686 20.5596 122.347 19.4355L122.188 18.9609C121.79 17.8401 121.1 17.0189 120.101 16.4551L120.089 16.4482C119.102 15.8743 117.623 15.5362 115.554 15.5361H110.619C109.911 15.5361 109.257 15.3029 108.738 14.8047L108.707 14.7734C108.216 14.2586 107.981 13.6148 107.98 12.9121C107.98 12.2046 108.211 11.5475 108.723 11.0342L108.738 11.0186C109.257 10.5202 109.911 10.2881 110.619 10.2881H115.779ZM43.5293 35.9473L43.5674 35.9463C43.5919 35.9446 43.6158 35.9399 43.6396 35.9375C43.6035 35.9411 43.5668 35.945 43.5293 35.9473ZM109.536 35.5938C109.54 35.597 109.545 35.5993 109.549 35.6025C109.509 35.5705 109.469 35.5374 109.431 35.501L109.536 35.5938ZM89.0352 34.8643C89.3626 35.0517 89.7023 35.2208 90.0537 35.373C89.7022 35.2206 89.3627 35.0508 89.0352 34.8633V34.8643ZM101.158 35.0645C101.193 35.0459 101.229 35.0288 101.264 35.0098C101.287 34.9968 101.31 34.9819 101.333 34.9688C101.275 35.0011 101.217 35.0332 101.158 35.0645ZM102.8 33.96C102.422 34.2743 102.018 34.5619 101.588 34.8223C101.534 34.8546 101.479 34.8847 101.425 34.916C101.479 34.8848 101.534 34.8555 101.588 34.8232C101.803 34.6931 102.011 34.5557 102.213 34.4121C102.415 34.2684 102.611 34.1181 102.8 33.9609V33.96ZM122.721 34.5137C122.627 34.5653 122.531 34.6152 122.434 34.6641L122.721 34.5146C122.823 34.4586 122.923 34.3999 123.021 34.3408C122.923 34.3998 122.823 34.4577 122.721 34.5137ZM45.1719 34.123C45.1719 34.2676 45.1615 34.4042 45.1426 34.5322C45.1518 34.4697 45.1603 34.4054 45.165 34.3389C45.17 34.2694 45.1719 34.1978 45.1719 34.124V34.123ZM95.5977 33.0293L95.3008 33.0342L95.6182 33.0293C95.7875 33.0244 95.9537 33.0137 96.1172 33.001C95.9472 33.0142 95.7741 33.0246 95.5977 33.0293ZM91.6689 32.3018L91.8652 32.3896C91.7552 32.342 91.6473 32.2912 91.541 32.2383C91.5835 32.2595 91.6258 32.2814 91.6689 32.3018ZM91.2031 32.0586C91.3058 32.1176 91.411 32.1729 91.5176 32.2266C91.4112 32.1731 91.3066 32.1175 91.2041 32.0586H91.2031ZM99.0811 32.1729C99.0944 32.1656 99.1089 32.1607 99.1221 32.1533L99.1367 32.1445C99.1186 32.1547 99.0994 32.1629 99.0811 32.1729ZM88.4785 24.0938C88.4786 25.7658 88.7543 27.1867 89.2754 28.3789C89.7889 29.5535 90.5391 30.4453 91.5254 31.0859C92.5047 31.6996 93.7462 32.0341 95.3008 32.0342C96.8568 32.0342 98.0692 31.6859 99 31.0557C99.9524 30.3972 100.679 29.4729 101.172 28.2432L101.173 28.2393C101.688 26.9718 101.96 25.4596 101.96 23.6826V23.6621C101.96 21.9236 101.769 20.4305 101.405 19.1709L101.402 19.1621C101.079 18.0026 100.466 17.1344 99.5635 16.5078C98.6985 15.9078 97.3054 15.5362 95.2402 15.5361H88.4785V24.0938ZM28.1514 31.7061H40.3223V22.3467C40.3223 20.8409 40.2083 19.6402 39.999 18.7256L39.9961 18.7129C39.8025 17.8144 39.4935 17.197 39.125 16.7881C38.7534 16.3759 38.2409 16.0615 37.5381 15.8711L37.5205 15.8652C36.7953 15.6539 35.8386 15.5361 34.626 15.5361H28.1514V31.7061ZM74.2129 30.0068C74.1216 30.144 74.0253 30.2765 73.9229 30.4033C74.0252 30.2767 74.1217 30.1447 74.2129 30.0078V30.0068ZM102.1 28.6152L102.204 28.3477C102.229 28.2815 102.252 28.2146 102.275 28.1475C102.22 28.3059 102.162 28.4623 102.1 28.6152ZM66.7344 24.8125C66.6935 24.8486 66.6497 24.8813 66.6045 24.9131C66.6499 24.8812 66.6943 24.8487 66.7354 24.8125C66.776 24.778 66.8127 24.7403 66.8486 24.7031C66.8126 24.7405 66.7751 24.7779 66.7344 24.8125ZM106.843 24.2354C106.843 24.2106 106.845 24.1859 106.846 24.1611C106.849 24.0029 106.851 23.8434 106.851 23.6826V23.6816C106.851 23.868 106.848 24.0525 106.843 24.2354ZM51.3555 10C52.1717 10 52.9032 10.2926 53.4619 10.8965L53.4609 10.8975C54.0235 11.4905 54.2803 12.2381 54.2803 13.0557V21.1123C54.2802 21.9298 54.0234 22.6776 53.4609 23.2705L53.4619 23.2715C52.9032 23.8753 52.1716 24.168 51.3555 24.168C50.5396 24.1678 49.8099 23.8761 49.2422 23.2852L49.2354 23.2783L49.2295 23.2715C48.6775 22.6748 48.4307 21.9255 48.4307 21.1123V13.0557C48.4307 12.2425 48.6776 11.4932 49.2295 10.8965L49.2354 10.8896L49.2422 10.8828C49.8099 10.2919 50.5397 10.0001 51.3555 10ZM41.2998 21.2354C41.3143 21.5888 41.3223 21.9598 41.3223 22.3467V22.3457C41.3223 21.6828 41.2995 21.0689 41.2568 20.5039C41.2746 20.7392 41.2894 20.983 41.2998 21.2354ZM63.0449 21.4199C63.0559 21.433 63.0677 21.4453 63.0791 21.458C63.0641 21.4413 63.0493 21.4245 63.0352 21.4072L63.0449 21.4199ZM41.167 19.6162C41.2005 19.876 41.2284 20.1485 41.251 20.4336C41.2284 20.1485 41.2006 19.876 41.167 19.6162ZM127.47 20.2725C127.444 20.1159 127.417 19.9614 127.388 19.8086C127.417 19.9614 127.444 20.1159 127.47 20.2725ZM127.37 19.7227C127.358 19.6613 127.348 19.5998 127.335 19.5391C127.32 19.4662 127.302 19.3943 127.286 19.3223C127.316 19.4543 127.344 19.5877 127.37 19.7227ZM127.269 19.2451C127.26 19.2094 127.255 19.1732 127.246 19.1377C127.226 19.0533 127.204 18.9699 127.183 18.8867C127.213 19.0049 127.241 19.1244 127.269 19.2451ZM127.157 18.7891C127.119 18.6444 127.08 18.5012 127.038 18.3604C127.08 18.5012 127.119 18.6443 127.157 18.7891ZM40.8848 18.1328C40.9169 18.2528 40.9463 18.3762 40.9736 18.5029C40.9764 18.5152 40.9787 18.5277 40.9814 18.54C40.9786 18.5274 40.9765 18.5145 40.9736 18.502C40.9464 18.3755 40.9168 18.2524 40.8848 18.1328ZM126.189 16.252C126.303 16.4679 126.41 16.6904 126.509 16.9199H126.51C126.411 16.6904 126.303 16.4679 126.189 16.252ZM105.185 15.7969C105.177 15.783 105.169 15.7687 105.161 15.7549C105.147 15.7315 105.133 15.7087 105.119 15.6855C105.141 15.7225 105.163 15.7595 105.185 15.7969ZM104.977 15.4541C104.956 15.4215 104.933 15.3897 104.912 15.3574C104.933 15.3895 104.956 15.4217 104.977 15.4541ZM104.62 14.9443C104.604 14.9228 104.589 14.9003 104.572 14.8789C104.563 14.8663 104.552 14.8544 104.542 14.8418C104.568 14.8756 104.594 14.91 104.62 14.9443ZM104.216 14.4512C104.282 14.5261 104.347 14.6023 104.411 14.6797C104.391 14.6555 104.373 14.6303 104.353 14.6064C104.308 14.5537 104.262 14.5027 104.216 14.4512ZM67.4111 14.5361C67.7011 14.5361 67.982 14.5409 68.2539 14.5518C67.9818 14.5408 67.7004 14.5352 67.4102 14.5352L67.4111 14.5361ZM110.443 14.5283C110.5 14.533 110.56 14.5361 110.619 14.5361H115.554C115.688 14.5361 115.821 14.5373 115.952 14.54V14.5391C115.821 14.5363 115.688 14.5352 115.554 14.5352H110.618C110.504 14.5351 110.395 14.5259 110.291 14.5088C110.341 14.5169 110.392 14.5241 110.443 14.5283ZM27.1514 14.5361H34.626V14.5352H27.1514V14.5361ZM87.4785 14.5361H95.2402L95.2393 14.5352H87.4785V14.5361ZM103.967 14.1826C103.937 14.1524 103.909 14.1215 103.879 14.0918C103.864 14.0765 103.847 14.062 103.832 14.0469C103.878 14.0915 103.922 14.137 103.967 14.1826ZM103.476 13.7188C103.563 13.7952 103.649 13.8734 103.733 13.9531C103.649 13.8734 103.563 13.7952 103.476 13.7188ZM103.418 13.6689C103.398 13.652 103.379 13.6339 103.359 13.6172C103.328 13.5912 103.296 13.5666 103.265 13.541C103.316 13.5831 103.367 13.6258 103.418 13.6689ZM123.633 13.3125C123.731 13.3826 123.827 13.4539 123.921 13.5273C123.732 13.3801 123.536 13.24 123.333 13.1064L123.633 13.3125ZM108.98 12.9121C108.98 12.9702 108.983 13.0272 108.987 13.083C108.992 13.1375 108.999 13.1909 109.008 13.2432C108.989 13.1372 108.98 13.0263 108.98 12.9111V12.9121ZM102.182 12.7881L101.88 12.6172C101.875 12.6144 101.869 12.6121 101.864 12.6094C101.972 12.6671 102.078 12.7265 102.182 12.7881ZM52.8574 11.7246C52.8977 11.776 52.9352 11.829 52.9697 11.8838C53.0041 11.9384 53.0358 11.9947 53.0645 12.0527C53.0068 11.9363 52.9381 11.8264 52.8574 11.7236V11.7246ZM49.9629 11.5752C49.9186 11.6231 49.8776 11.6733 49.8389 11.7246C49.8777 11.6732 49.9195 11.6232 49.9639 11.5752C50.0099 11.5273 50.0574 11.4824 50.1064 11.4404L49.9629 11.5752ZM50.5879 11.1436C50.4719 11.1915 50.3619 11.2514 50.2578 11.3232L50.4189 11.2246C50.4738 11.1947 50.53 11.1675 50.5879 11.1436ZM95.9375 11.2988C95.8869 11.2974 95.8362 11.2951 95.7852 11.2939L95.2402 11.2881H95.2393C95.4761 11.2881 95.7088 11.2925 95.9375 11.2988Z" fill="#00ADE1"/>
<mask id="path-2-outside-1_6130_11769" maskUnits="userSpaceOnUse" x="6.33325" y="9" width="21" height="21" fill="black">
<rect fill="white" x="6.33325" y="9" width="21" height="21"/>
<path d="M12.5002 11C14.8012 11.0002 16.6663 12.8659 16.6663 15.167V19.333H20.8333C23.1343 19.3331 24.9993 21.1989 24.9993 23.5C24.9993 25.8011 23.1343 27.6669 20.8333 27.667H12.5002C10.2712 27.667 8.45093 25.9162 8.33911 23.7148L8.33325 23.5V15.167C8.33325 12.8658 10.1991 11 12.5002 11Z"/>
</mask>
<path d="M12.5002 11C14.8012 11.0002 16.6663 12.8659 16.6663 15.167V19.333H20.8333C23.1343 19.3331 24.9993 21.1989 24.9993 23.5C24.9993 25.8011 23.1343 27.6669 20.8333 27.667H12.5002C10.2712 27.667 8.45093 25.9162 8.33911 23.7148L8.33325 23.5V15.167C8.33325 12.8658 10.1991 11 12.5002 11Z" fill="url(#paint0_linear_6130_11769)"/>
<path d="M12.5002 11L12.5004 9.6H12.5002V11ZM16.6663 19.333H15.2663V20.733H16.6663V19.333ZM20.8333 19.333L20.8333 17.933H20.8333V19.333ZM24.9993 23.5H26.3993H24.9993ZM20.8333 27.667V29.067H20.8333L20.8333 27.667ZM12.5002 27.667V29.067V27.667ZM8.33911 23.7148L6.93963 23.753L6.94008 23.7694L6.94091 23.7859L8.33911 23.7148ZM8.33325 23.5H6.93325V23.5191L6.93377 23.5382L8.33325 23.5ZM12.5002 11L12.5001 12.4C14.0277 12.4001 15.2663 13.6388 15.2663 15.167H16.6663H18.0663C18.0663 12.093 15.5747 9.60028 12.5004 9.6L12.5002 11ZM16.6663 15.167H15.2663V19.333H16.6663H18.0663V15.167H16.6663ZM16.6663 19.333V20.733H20.8333V19.333V17.933H16.6663V19.333ZM20.8333 19.333L20.8332 20.733C22.3608 20.7331 23.5993 21.9717 23.5993 23.5H24.9993H26.3993C26.3993 20.426 23.9079 17.9331 20.8333 17.933L20.8333 19.333ZM24.9993 23.5H23.5993C23.5993 25.0283 22.3608 26.2669 20.8332 26.267L20.8333 27.667L20.8333 29.067C23.9079 29.0669 26.3993 26.574 26.3993 23.5H24.9993ZM20.8333 27.667V26.267H12.5002V27.667V29.067H20.8333V27.667ZM12.5002 27.667V26.267C11.0207 26.267 9.81151 25.1045 9.73731 23.6438L8.33911 23.7148L6.94091 23.7859C7.09036 26.7278 9.52156 29.067 12.5002 29.067V27.667ZM8.33911 23.7148L9.73859 23.6767L9.73273 23.4618L8.33325 23.5L6.93377 23.5382L6.93963 23.753L8.33911 23.7148ZM8.33325 23.5H9.73325V15.167H8.33325H6.93325V23.5H8.33325ZM8.33325 15.167H9.73325C9.73325 13.639 10.9723 12.4 12.5002 12.4V11V9.6C9.4259 9.6 6.93325 12.0926 6.93325 15.167H8.33325Z" fill="#F5F7FB" mask="url(#path-2-outside-1_6130_11769)"/>
<path d="M12.4996 36C10.1986 35.9998 8.33356 34.1341 8.33356 31.833L8.33356 27.667L4.16657 27.667C1.86549 27.6669 0.000550208 25.8011 0.000550409 23.5C0.00055061 21.1989 1.86549 19.3331 4.16657 19.333L12.4996 19.333C14.7287 19.333 16.5489 21.0838 16.6607 23.2851L16.6666 23.5L16.6666 31.833C16.6666 34.1342 14.8007 36 12.4996 36Z" fill="url(#paint1_linear_6130_11769)"/>
<path d="M8.33325 19.3333H12.4041C14.7582 19.3333 16.6665 21.2417 16.6665 23.5957V27.6667H12.5956C10.2416 27.6667 8.33325 25.7584 8.33325 23.4044V19.3333Z" fill="url(#paint2_linear_6130_11769)"/>
<defs>
<linearGradient id="paint0_linear_6130_11769" x1="10.3259" y1="11" x2="27.7177" y2="31.4704" gradientUnits="userSpaceOnUse">
<stop stop-color="#00ADE1"/>
<stop offset="1" stop-color="#0083AB"/>
</linearGradient>
<linearGradient id="paint1_linear_6130_11769" x1="0.000548827" y1="18.0649" x2="18.4793" y2="38.8975" gradientUnits="userSpaceOnUse">
<stop stop-color="#C8F2FF" stop-opacity="0.9"/>
<stop offset="1" stop-color="#07C6FF"/>
</linearGradient>
<linearGradient id="paint2_linear_6130_11769" x1="9.42019" y1="17.1594" x2="18.1159" y2="32.1956" gradientUnits="userSpaceOnUse">
<stop stop-color="#4DD5FE"/>
<stop offset="1" stop-color="#0083AB"/>
</linearGradient>
</defs>
</svg>
