<svg width="112" height="106" viewBox="0 0 112 106" fill="none" xmlns="http://www.w3.org/2000/svg">
<path d="M109.456 15.8488V67.3164C109.456 74.7876 103.399 80.8441 95.9279 80.8441H16.0719C8.6007 80.8441 2.54422 74.7876 2.54422 67.3164V15.8488C2.54422 8.37765 8.6007 2.32117 16.0719 2.32117H95.9281C103.399 2.32117 109.456 8.37765 109.456 15.8488Z" fill="white"/>
<path d="M2.54446 64.2877V69.4299C2.54446 75.7337 8.60095 80.8437 16.0721 80.8437H95.9281C103.399 80.8437 109.456 75.7337 109.456 69.4299V64.2877H2.54446Z" fill="white"/>
<path d="M2.54446 64.2877V69.4299C2.54446 75.7337 8.60095 80.8437 16.0721 80.8437H95.9281C103.399 80.8437 109.456 75.7337 109.456 69.4299V64.2877H2.54446Z" fill="#F03B6B" fill-opacity="0.24"/>
<path d="M70.313 104.093H41.687C44.6471 96.3371 44.6471 88.5809 41.687 80.8438H70.313C67.9337 89.4805 67.1844 97.4987 70.313 104.093Z" fill="white"/>
<path d="M70.313 104.093H41.687C44.6471 96.3371 44.6471 88.5809 41.687 80.8438H70.313C67.9337 89.4805 67.1844 97.4987 70.313 104.093Z" fill="#F03B6B" fill-opacity="0.24"/>
<path d="M70.9761 34.9721C70.9761 45.0045 62.8632 53.1172 52.8491 53.1172C42.8347 53.1172 34.704 45.0045 34.704 34.9721C34.704 24.958 42.8349 16.827 52.8491 16.827V34.9721H70.9761Z" fill="white"/>
<path d="M70.9761 34.9721C70.9761 45.0045 62.8632 53.1172 52.8491 53.1172C42.8347 53.1172 34.704 45.0045 34.704 34.9721C34.704 24.958 42.8349 16.827 52.8491 16.827V34.9721H70.9761Z" fill="#F03B6B" fill-opacity="0.24"/>
<path d="M77.2642 29.2981H59.1242V11.1584C69.1428 11.1584 77.2642 19.2798 77.2642 29.2981Z" fill="white"/>
<path d="M77.2642 29.2981H59.1242V11.1584C69.1428 11.1584 77.2642 19.2798 77.2642 29.2981Z" fill="#F03B6B" fill-opacity="0.24"/>
<path d="M95.9279 0.509888H16.0721C7.61539 0.509888 0.734375 7.3909 0.734375 15.8486V69.4297C0.734375 76.7218 7.61539 82.655 16.0721 82.655H40.3845C42.6071 89.1657 42.6069 95.7559 40.3827 102.282H26.4563C25.4553 102.282 24.6455 103.093 24.6455 104.093C24.6455 105.093 25.4555 105.904 26.4563 105.904H85.5437C86.5447 105.904 87.3544 105.093 87.3544 104.093C87.3544 103.093 86.5444 102.282 85.5437 102.282H71.5365C69.5337 97.2852 69.5942 90.9796 71.727 82.655H95.9281C104.385 82.655 111.266 76.7218 111.266 69.4297C111.266 52.7809 111.266 38.9957 111.266 15.8486C111.266 7.3909 104.385 0.509888 95.9279 0.509888ZM67.647 102.282H44.2203C46.208 95.7533 46.208 89.1718 44.2222 82.6553H67.9723C66.0289 90.6423 65.9192 96.9955 67.647 102.282ZM16.0721 79.0335C9.61203 79.0335 4.35617 73.7776 4.35617 67.3166V66.099H107.644V67.3166C107.644 73.7776 102.388 79.0335 95.9281 79.0335C68.5653 79.0335 44.3012 79.0335 16.0721 79.0335ZM107.644 62.4772H4.35617V15.8486C4.35617 9.38754 9.61203 4.13168 16.0721 4.13168H95.9281C102.388 4.13168 107.644 9.38754 107.644 15.8486V62.4772H107.644Z" fill="#9E1F4E"/>
<path d="M61.7581 70.7554H50.2421C49.2411 70.7554 48.4313 71.5663 48.4313 72.5662C48.4313 73.5662 49.2413 74.3769 50.2421 74.3769H61.7581C62.7591 74.3769 63.5689 73.566 63.5689 72.5662C63.5689 71.5661 62.7589 70.7554 61.7581 70.7554Z" fill="#9E1F4E"/>
<path d="M70.9752 33.1616H54.6594V16.8264C54.6594 15.8263 53.8494 15.0156 52.8486 15.0156C41.8454 15.0156 32.8934 23.9683 32.8934 34.9724C32.8934 45.9756 41.8454 54.9276 52.8486 54.9276C63.8431 54.9276 72.7859 45.9756 72.7859 34.9724C72.7862 33.9726 71.9762 33.1616 70.9752 33.1616ZM52.8486 51.306C43.8418 51.306 36.5152 43.9785 36.5152 34.9727C36.5152 26.5769 42.8799 19.641 51.0378 18.7375V34.9727C51.0378 35.9727 51.8478 36.7834 52.8486 36.7834H69.0652C68.1615 44.9413 61.2345 51.306 52.8486 51.306Z" fill="#9E1F4E"/>
<path d="M59.1249 9.34766C58.1239 9.34766 57.3141 10.1586 57.3141 11.1584V29.2984C57.3141 30.2984 58.1242 31.1091 59.1249 31.1091H77.2639C78.2649 31.1091 79.0747 30.2982 79.0747 29.2984C79.0747 18.2977 70.1246 9.34766 59.1249 9.34766ZM60.9357 27.4876V13.0695C68.4941 13.9077 74.5156 19.9285 75.3538 27.4876H60.9357Z" fill="#9E1F4E"/>
</svg>
