<svg width="112" height="106" viewBox="0 0 112 106" fill="none" xmlns="http://www.w3.org/2000/svg">
<path d="M109.456 15.8489V67.3165C109.456 74.7876 103.399 80.8441 95.9279 80.8441H16.0719C8.6007 80.8441 2.54422 74.7876 2.54422 67.3165V15.8489C2.54422 8.37771 8.6007 2.32123 16.0719 2.32123H95.9281C103.399 2.32123 109.456 8.37771 109.456 15.8489Z" fill="white"/>
<path d="M2.54446 64.2878V69.43C2.54446 75.7338 8.60095 80.8439 16.0721 80.8439H95.9281C103.399 80.8439 109.456 75.7338 109.456 69.43V64.2878H2.54446Z" fill="white"/>
<path d="M2.54446 64.2878V69.43C2.54446 75.7338 8.60095 80.8439 16.0721 80.8439H95.9281C103.399 80.8439 109.456 75.7338 109.456 69.43V64.2878H2.54446Z" fill="#00ADE1" fill-opacity="0.24"/>
<path d="M70.313 104.093H41.687C44.6471 96.3372 44.6471 88.5811 41.687 80.8439H70.313C67.9337 89.4806 67.1844 97.4988 70.313 104.093Z" fill="white"/>
<path d="M70.313 104.093H41.687C44.6471 96.3372 44.6471 88.5811 41.687 80.8439H70.313C67.9337 89.4806 67.1844 97.4988 70.313 104.093Z" fill="#00ADE1" fill-opacity="0.24"/>
<path d="M70.9761 34.9722C70.9761 45.0047 62.8632 53.1173 52.8491 53.1173C42.8347 53.1173 34.704 45.0047 34.704 34.9722C34.704 24.9581 42.8349 16.8271 52.8491 16.8271V34.9722H70.9761Z" fill="white"/>
<path d="M70.9761 34.9722C70.9761 45.0047 62.8632 53.1173 52.8491 53.1173C42.8347 53.1173 34.704 45.0047 34.704 34.9722C34.704 24.9581 42.8349 16.8271 52.8491 16.8271V34.9722H70.9761Z" fill="#00ADE1" fill-opacity="0.24"/>
<path d="M77.2642 29.2983H59.1242V11.1586C69.1428 11.1586 77.2642 19.2799 77.2642 29.2983Z" fill="white"/>
<path d="M77.2642 29.2983H59.1242V11.1586C69.1428 11.1586 77.2642 19.2799 77.2642 29.2983Z" fill="#00ADE1" fill-opacity="0.24"/>
<path d="M95.9279 0.509949H16.0721C7.61539 0.509949 0.734375 7.39096 0.734375 15.8486V69.4298C0.734375 76.7219 7.61539 82.6551 16.0721 82.6551H40.3845C42.6071 89.1658 42.6069 95.756 40.3827 102.282H26.4563C25.4553 102.282 24.6455 103.093 24.6455 104.093C24.6455 105.093 25.4555 105.904 26.4563 105.904H85.5437C86.5447 105.904 87.3544 105.093 87.3544 104.093C87.3544 103.093 86.5444 102.282 85.5437 102.282H71.5365C69.5337 97.2853 69.5942 90.9796 71.727 82.6551H95.9281C104.385 82.6551 111.266 76.7219 111.266 69.4298C111.266 52.781 111.266 38.9957 111.266 15.8486C111.266 7.39096 104.385 0.509949 95.9279 0.509949ZM67.647 102.282H44.2203C46.208 95.7534 46.208 89.1719 44.2222 82.6553H67.9723C66.0289 90.6424 65.9192 96.9956 67.647 102.282ZM16.0721 79.0335C9.61203 79.0335 4.35617 73.7777 4.35617 67.3167V66.0991H107.644V67.3167C107.644 73.7777 102.388 79.0335 95.9281 79.0335C68.5653 79.0335 44.3012 79.0335 16.0721 79.0335ZM107.644 62.4773H4.35617V15.8486C4.35617 9.3876 9.61203 4.13175 16.0721 4.13175H95.9281C102.388 4.13175 107.644 9.3876 107.644 15.8486V62.4773H107.644Z" fill="#00ADE1"/>
<path d="M61.7581 70.7554H50.2421C49.2411 70.7554 48.4313 71.5664 48.4313 72.5662C48.4313 73.5663 49.2413 74.377 50.2421 74.377H61.7581C62.7591 74.377 63.5689 73.5661 63.5689 72.5662C63.5689 71.5661 62.7589 70.7554 61.7581 70.7554Z" fill="#00ADE1"/>
<path d="M70.9752 33.1616H54.6594V16.8264C54.6594 15.8263 53.8494 15.0156 52.8486 15.0156C41.8454 15.0156 32.8934 23.9683 32.8934 34.9724C32.8934 45.9756 41.8454 54.9276 52.8486 54.9276C63.8431 54.9276 72.7859 45.9756 72.7859 34.9724C72.7862 33.9726 71.9762 33.1616 70.9752 33.1616ZM52.8486 51.306C43.8418 51.306 36.5152 43.9785 36.5152 34.9727C36.5152 26.5769 42.8799 19.641 51.0378 18.7375V34.9727C51.0378 35.9727 51.8478 36.7834 52.8486 36.7834H69.0652C68.1615 44.9413 61.2345 51.306 52.8486 51.306Z" fill="#00ADE1"/>
<path d="M59.1249 9.34778C58.1239 9.34778 57.3141 10.1587 57.3141 11.1586V29.2985C57.3141 30.2986 58.1242 31.1093 59.1249 31.1093H77.2639C78.2649 31.1093 79.0747 30.2983 79.0747 29.2985C79.0747 18.2979 70.1246 9.34778 59.1249 9.34778ZM60.9357 27.4877V13.0697C68.4941 13.9078 74.5156 19.9286 75.3538 27.4877H60.9357Z" fill="#00ADE1"/>
</svg>
