<svg width="111" height="122" viewBox="0 0 111 122" fill="none" xmlns="http://www.w3.org/2000/svg">
<path d="M2.19446 67.8044L16.129 65.9979L15.4037 39.3852L2.19446 67.8044Z" fill="#00ADE1" fill-opacity="0.24"/>
<path d="M15.4037 40.1642V113.483C15.4037 116.987 18.2721 119.827 21.8105 119.827H102.202C105.741 119.827 108.609 116.986 108.609 113.483V40.1642H15.4037Z" fill="#00ADE1" fill-opacity="0.24"/>
<path d="M2.19446 66.9527L12.5572 114.935C13.1877 117.855 15.7884 119.944 18.8032 119.953L102.787 120.202C105.705 120.211 107.838 117.477 107.092 114.683L94.3691 67.0239L2.19446 66.9527Z" fill="white"/>
<path d="M23.697 6.83482V66.9551H84.7958V6.83482C84.7958 4.51023 82.893 2.62595 80.5455 2.62595H27.9472C25.5998 2.62595 23.697 4.51047 23.697 6.83482Z" fill="white"/>
<path d="M44.1734 26.1979C44.1734 31.7029 48.6844 36.1701 54.2438 36.1701C59.8081 36.1701 64.3193 31.7029 64.3193 26.1979C64.3193 20.6878 59.8083 16.2206 54.2438 16.2206C48.6846 16.2206 44.1734 20.6878 44.1734 26.1979Z" fill="white"/>
<path d="M44.2615 53.3607C43.3253 53.3607 42.625 52.5275 42.7663 51.611C43.6173 46.0898 48.4331 41.86 54.2465 41.86C60.0599 41.86 64.8757 46.0898 65.7267 51.611C65.868 52.5275 65.1677 53.3607 64.2315 53.3607H44.2615Z" fill="white"/>
<path d="M11.3722 115.191C12.118 118.643 15.2419 121.155 18.8001 121.164L102.783 121.414H102.8C106.441 121.414 109.82 117.124 109.82 113.483V40.1642C109.82 39.5491 109.266 38.9521 108.608 38.9521H86.0077V6.83435C86.0077 3.84555 83.5575 1.41406 80.546 1.41406H27.9477C24.9351 1.41406 22.4848 3.84531 22.4848 6.83435V38.9521H15.4039C15.0418 38.9521 14.5197 39.2183 14.3172 39.6281L1.10824 66.4165C1.00809 66.6185 0.983291 67.0841 1.01001 67.2083L11.3722 115.191ZM14.1918 65.7499L4.14278 65.7422L14.1918 45.3625V65.7499ZM13.7421 114.68L3.69716 68.166L93.438 68.2346L105.921 114.995C106.459 117.01 104.921 118.99 102.8 118.99C102.796 118.99 102.794 118.99 102.79 118.99L18.8073 118.74C16.3794 118.733 14.2486 117.026 13.7421 114.68ZM107.396 111.124L95.6631 67.1722L107.396 45.0397V111.124ZM106.593 41.3763L93.6399 65.8111L86.0077 65.8053V41.3763H106.593ZM24.9091 6.83435C24.9091 5.1819 26.2727 3.83832 27.9477 3.83832H80.546C82.2209 3.83832 83.5835 5.1819 83.5835 6.83435V65.7429H24.9091V6.83435ZM22.4851 41.3763V65.7562L16.6163 65.7516V41.3763H22.4851Z" fill="#00ADE1" stroke="#00ADE1"/>
<path d="M67.8696 78.7745C67.1996 78.7745 66.6574 79.3167 66.6574 79.9866V93.5627C66.6574 95.6295 64.954 97.3104 62.8612 97.3104H36.1413C34.0486 97.3104 32.3451 95.6295 32.3451 93.5627V79.9866C32.3451 79.3167 31.803 78.7745 31.133 78.7745C30.463 78.7745 29.9208 79.3167 29.9208 79.9866V93.5627C29.9208 96.9659 32.7108 99.7346 36.1413 99.7346H62.8612C66.2915 99.7346 69.0817 96.9659 69.0817 93.5627V79.9866C69.0817 79.3167 68.5395 78.7745 67.8696 78.7745Z" fill="#00ADE1" stroke="#00ADE1"/>
<path d="M54.2439 37.3825C60.4677 37.3825 65.5317 32.3647 65.5317 26.1976C65.5317 20.0282 60.4677 15.008 54.2439 15.008C48.0222 15.008 42.9608 20.0282 42.9608 26.1976C42.9608 32.3647 48.0224 37.3825 54.2439 37.3825ZM54.2439 17.4323C59.1314 17.4323 63.1075 21.3645 63.1075 26.1976C63.1075 31.0283 59.1314 34.9582 54.2439 34.9582C49.3587 34.9582 45.3851 31.0283 45.3851 26.1976C45.3851 21.3645 49.3587 17.4323 54.2439 17.4323Z" fill="#00ADE1" stroke="#00ADE1"/>
<path d="M54.2463 40.6483C47.9656 40.6483 42.5157 45.2814 41.5686 51.4249C41.3134 53.0797 42.5848 54.5723 44.2616 54.5723H64.2308C65.9126 54.5723 67.1782 53.0742 66.9237 51.4261C65.9769 45.2814 60.5272 40.6483 54.2463 40.6483ZM64.231 52.1481H44.2618C44.0661 52.1481 43.937 51.9762 43.9647 51.7954C44.7317 46.8226 49.1517 43.0726 54.2465 43.0726C59.3413 43.0726 63.7611 46.8226 64.5283 51.7966C64.5555 51.9745 64.428 52.1481 64.231 52.1481Z" fill="#00ADE1" stroke="#00ADE1"/>
</svg>
