<svg width="110" height="116" viewBox="0 0 110 116" fill="none" xmlns="http://www.w3.org/2000/svg">
<path d="M55.5883 42.5293L61.7104 26.8409C54.1192 24.1554 47.624 24.0699 42.333 26.8409C37.3141 29.6998 30.1788 28.613 22.676 26.8409L28.998 42.5107C29.8844 44.708 29.2302 47.276 27.3088 48.6621C15.6177 57.0959 7.54822 74.0848 7.54822 87.9092C7.54822 107.112 23.1131 114.196 42.333 114.196C61.5353 114.196 77.1177 107.112 77.1177 87.9092C77.1177 74.0651 69.0163 57.0483 57.3002 48.6268C55.394 47.2566 54.7349 44.716 55.5883 42.5293Z" fill="white"/>
<path d="M72.5142 107.819C72.5142 111.346 80.47 114.196 90.2946 114.196C100.119 114.196 108.075 111.346 108.075 107.819V107.824V59.1727H72.5142V107.824" fill="white"/>
<path d="M72.5142 107.819C72.5142 111.346 80.47 114.196 90.2946 114.196C100.119 114.196 108.075 111.346 108.075 107.819V107.824V59.1727H72.5142V107.824" fill="#00ADE1" fill-opacity="0.24"/>
<path d="M108.075 59.1727C108.075 62.6857 100.119 65.5358 90.2948 65.5358C80.4703 65.5358 72.5144 62.6857 72.5144 59.1727C72.5144 55.6597 80.4703 52.7956 90.2948 52.7956C100.119 52.7956 108.075 55.6597 108.075 59.1727Z" fill="white"/>
<path d="M8.31139 43.4255C9.31146 43.4255 10.1222 42.6146 10.1222 41.6147V6.32206L13.4168 9.61714C14.1241 10.3245 15.27 10.3245 15.9776 9.61714C16.6849 8.91074 16.6849 7.7637 15.9776 7.05636L9.65271 0.73058C9.32107 0.356517 8.85068 0.109955 8.31139 0.109955C7.79576 0.109955 7.33662 0.330502 7.00662 0.676205L0.644277 7.03878C-0.0630664 7.74613 -0.0630664 8.89222 0.644277 9.59956C1.35162 10.3069 2.49771 10.3069 3.20506 9.59956L6.50061 6.30402V41.6145C6.50037 42.6146 7.31131 43.4255 8.31139 43.4255Z" fill="#00ADE1"/>
<path d="M83.9575 32.7033L88.4838 37.2296V7.97417C88.4838 6.9741 89.2947 6.1634 90.2945 6.1634C91.2944 6.1634 92.1053 6.97433 92.1053 7.97417V37.2085L96.6316 32.6822C97.3389 31.9749 98.4848 31.9749 99.1923 32.6822C99.8997 33.3896 99.8997 34.5357 99.1923 35.243L91.6469 42.7885C91.3148 43.1712 90.8409 43.4255 90.2945 43.4255C89.7766 43.4255 89.3162 43.2024 88.9862 42.8536L81.3967 35.2641C80.6894 34.5568 80.6894 33.4107 81.3967 32.7033C82.1041 31.996 83.2499 31.996 83.9575 32.7033Z" fill="#00ADE1"/>
<path d="M109.886 107.832V59.1727C109.886 53.7975 100.031 50.9848 90.2948 50.9848C80.5586 50.9848 70.7031 53.7975 70.7031 59.1727V60.9929C67.308 55.4262 63.0754 50.5479 58.3567 47.1561C57.148 46.2868 56.7032 44.6546 57.2753 43.1876L63.3977 27.4997C63.5753 27.0427 63.5613 26.5332 63.3569 26.0867C63.1527 25.6411 62.7768 25.2971 62.3144 25.1335C54.1459 22.2448 47.1412 22.2802 41.436 25.2671C36.9194 27.841 29.9481 26.6968 23.092 25.0786C22.4366 24.9249 21.7427 25.1485 21.3013 25.6613C20.8609 26.1741 20.7426 26.8913 20.9962 27.5182L27.3184 43.1883C27.9039 44.6393 27.4546 46.3238 26.2495 47.1929C26.2141 47.2184 26.1803 47.2489 26.1449 47.2744C26.1353 47.2824 26.1252 47.2887 26.1159 47.2969C14.4897 55.7698 5.73743 73.1897 5.73743 87.9089C5.73743 106.028 18.7338 116.007 42.3327 116.007C54.8812 116.007 64.4713 112.973 70.7031 107.42V107.832C70.72 113.198 80.5675 116.007 90.2948 116.007C100.022 116.007 109.87 113.198 109.886 107.832ZM90.2945 67.3463C96.3855 67.3463 102.522 66.2473 106.264 64.1105V69.2323C106.264 70.8371 100.201 73.7843 90.2945 73.7843C80.3877 73.7843 74.3247 70.8373 74.3247 69.2323V64.1105C78.0667 66.2473 84.2036 67.3463 90.2945 67.3463ZM106.265 88.6032C106.265 90.2079 100.202 93.1552 90.2948 93.1552C80.388 93.1552 74.3249 90.2082 74.3249 88.6032V83.9276C78.067 86.0679 84.2038 87.169 90.2948 87.169C96.3857 87.169 102.523 86.0679 106.265 83.9276V88.6032ZM106.265 78.9809C106.265 80.5911 100.202 83.547 90.2948 83.547C80.388 83.547 74.3249 80.5911 74.3249 78.9809V74.1704C78.067 76.3069 84.2038 77.4061 90.2948 77.4061C96.3857 77.4061 102.523 76.3071 106.265 74.1704V78.9809ZM74.3247 93.5412C78.0667 95.6778 84.2036 96.777 90.2945 96.777C96.3855 96.777 102.522 95.678 106.264 93.5412V98.2111C106.264 99.8213 100.201 102.777 90.2945 102.777C80.3877 102.777 74.3247 99.8213 74.3247 98.2111V93.5412ZM90.2945 54.6064C100.201 54.6064 106.264 57.5623 106.264 59.1725C106.264 60.7772 100.201 63.7245 90.2945 63.7245C80.3877 63.7245 74.3247 60.7775 74.3247 59.1725C74.3247 57.5625 80.3877 54.6064 90.2945 54.6064ZM25.6403 29.3504C32.8185 30.8058 38.6296 31.0348 43.1727 28.445C47.4965 26.1795 52.9248 26.0204 59.3284 27.9631C53.5326 42.9179 53.8734 41.7338 53.6109 42.8429H30.9909C30.7197 41.7275 30.8437 42.3422 25.6403 29.3504ZM42.3327 112.385C30.0182 112.385 9.35922 109.205 9.35922 87.9089C9.35922 76.8352 14.6868 64.1241 22.4388 55.5202C21.6053 60.8288 23.4407 64.696 28.6909 66.4011C29.6552 66.7132 30.6672 66.1777 30.9723 65.2374C31.281 64.2868 30.7602 63.2647 29.8087 62.956C26.2928 61.8153 25.4282 59.6358 26.0338 55.9711C27.2465 59.9389 30.1413 61.8179 34.1662 62.1045C35.2176 62.1675 36.0334 61.3836 36.1016 60.4271C36.1724 59.4289 35.4217 58.5631 34.4242 58.4916C29.4752 58.1386 28.7952 54.5799 29.0746 49.5218C29.9648 48.672 30.6009 47.6192 30.9311 46.4644H53.6903C54.1084 47.8988 54.9794 49.1883 56.2436 50.0968C62.1632 54.3518 67.2646 61.1215 70.7034 68.6171V102.292C63.9088 110.766 51.0447 112.385 42.3327 112.385ZM90.2945 112.385C80.3877 112.385 74.3247 109.429 74.3247 107.819V103.158C78.0667 105.298 84.2036 106.399 90.2945 106.399C96.3855 106.399 102.522 105.298 106.264 103.158V107.819C106.265 109.429 100.202 112.385 90.2945 112.385Z" fill="#00ADE1"/>
</svg>
