<svg width="120" height="121" viewBox="0 0 120 121" fill="none" xmlns="http://www.w3.org/2000/svg">
<g clip-path="url(#clip0_6322_1760)">
<path d="M60.5883 45.5293L66.7104 29.841C59.1192 27.1555 52.624 27.07 47.333 29.841C42.3141 32.6999 35.1788 31.6131 27.676 29.841L33.998 45.5108C34.8844 47.7081 34.2302 50.2761 32.3088 51.6622C20.6177 60.096 12.5482 77.0849 12.5482 90.9093C12.5482 110.112 28.1131 117.196 47.333 117.196C66.5353 117.196 82.1177 110.112 82.1177 90.9093C82.1177 77.0652 74.0163 60.0484 62.3002 51.6268C60.394 50.2567 59.7349 47.7161 60.5883 45.5293Z" fill="white"/>
<path d="M77.5142 110.819C77.5142 114.346 85.47 117.196 95.2946 117.196C105.119 117.196 113.075 114.346 113.075 110.819V110.824V62.1727H77.5142V110.824" fill="white"/>
<path d="M77.5142 110.819C77.5142 114.346 85.47 117.196 95.2946 117.196C105.119 117.196 113.075 114.346 113.075 110.819V110.824V62.1727H77.5142V110.824" fill="#F03B6B" fill-opacity="0.24"/>
<path d="M113.075 62.1728C113.075 65.6858 105.119 68.5358 95.2948 68.5358C85.4703 68.5358 77.5144 65.6858 77.5144 62.1728C77.5144 58.6597 85.4703 55.7957 95.2948 55.7957C105.119 55.7957 113.075 58.6597 113.075 62.1728Z" fill="white"/>
<path d="M13.3114 46.4255C14.3115 46.4255 15.1222 45.6146 15.1222 44.6147V9.32209L18.4168 12.6172C19.1241 13.3245 20.27 13.3245 20.9776 12.6172C21.6849 11.9108 21.6849 10.7637 20.9776 10.0564L14.6527 3.73061C14.3211 3.35655 13.8507 3.10999 13.3114 3.10999C12.7958 3.10999 12.3366 3.33053 12.0066 3.67624L5.64428 10.0388C4.93693 10.7462 4.93693 11.8923 5.64428 12.5996C6.35162 13.3069 7.49771 13.3069 8.20506 12.5996L11.5006 9.30405V44.6145C11.5004 45.6146 12.3113 46.4255 13.3114 46.4255Z" fill="#9E1F4E"/>
<path d="M88.9575 35.7033L93.4838 40.2296V10.9742C93.4838 9.97413 94.2947 9.16343 95.2945 9.16343C96.2944 9.16343 97.1053 9.97436 97.1053 10.9742V40.2085L101.632 35.6823C102.339 34.9749 103.485 34.9749 104.192 35.6823C104.9 36.3896 104.9 37.5357 104.192 38.243L96.6469 45.7885C96.3148 46.1712 95.8409 46.4255 95.2945 46.4255C94.7766 46.4255 94.3162 46.2024 93.9862 45.8537L86.3967 38.2641C85.6894 37.5568 85.6894 36.4107 86.3967 35.7033C87.1041 34.996 88.2499 34.996 88.9575 35.7033Z" fill="#9E1F4E"/>
<path d="M114.886 110.832V62.1727C114.886 56.7975 105.031 53.9848 95.2948 53.9848C85.5586 53.9848 75.7031 56.7975 75.7031 62.1727V63.9928C72.308 58.4262 68.0754 53.5479 63.3567 50.156C62.148 49.2867 61.7032 47.6545 62.2753 46.1876L68.3977 30.4997C68.5753 30.0427 68.5613 29.5331 68.3569 29.0867C68.1527 28.6411 67.7768 28.297 67.3144 28.1334C59.1459 25.2448 52.1412 25.2802 46.436 28.267C41.9194 30.8409 34.9481 29.6967 28.092 28.0786C27.4366 27.9249 26.7427 28.1485 26.3013 28.6613C25.8609 29.1741 25.7426 29.8913 25.9962 30.5182L32.3184 46.1883C32.9039 47.6393 32.4546 49.3238 31.2495 50.1928C31.2141 50.2184 31.1803 50.2488 31.1449 50.2744C31.1353 50.2824 31.1252 50.2887 31.1159 50.2969C19.4897 58.7698 10.7374 76.1897 10.7374 90.9089C10.7374 109.028 23.7338 119.007 47.3327 119.007C59.8812 119.007 69.4713 115.973 75.7031 110.42V110.832C75.72 116.198 85.5675 119.007 95.2948 119.007C105.022 119.007 114.87 116.198 114.886 110.832ZM95.2945 70.3463C101.385 70.3463 107.522 69.2473 111.264 67.1105V72.2323C111.264 73.837 105.201 76.7843 95.2945 76.7843C85.3877 76.7843 79.3247 73.8373 79.3247 72.2323V67.1105C83.0667 69.2473 89.2036 70.3463 95.2945 70.3463ZM111.265 91.6031C111.265 93.2079 105.202 96.1552 95.2948 96.1552C85.388 96.1552 79.3249 93.2081 79.3249 91.6031V86.9276C83.067 89.0679 89.2038 90.169 95.2948 90.169C101.386 90.169 107.523 89.0679 111.265 86.9276V91.6031ZM111.265 81.9809C111.265 83.591 105.202 86.547 95.2948 86.547C85.388 86.547 79.3249 83.591 79.3249 81.9809V77.1703C83.067 79.3069 89.2038 80.4061 95.2948 80.4061C101.386 80.4061 107.523 79.3071 111.265 77.1703V81.9809ZM79.3247 96.5412C83.0667 98.6777 89.2036 99.777 95.2945 99.777C101.385 99.777 107.522 98.678 111.264 96.5412V101.211C111.264 102.821 105.201 105.777 95.2945 105.777C85.3877 105.777 79.3247 102.821 79.3247 101.211V96.5412ZM95.2945 57.6063C105.201 57.6063 111.264 60.5623 111.264 62.1724C111.264 63.7772 105.201 66.7245 95.2945 66.7245C85.3877 66.7245 79.3247 63.7774 79.3247 62.1724C79.3247 60.5625 85.3877 57.6063 95.2945 57.6063ZM30.6403 32.3503C37.8185 33.8058 43.6296 34.0348 48.1727 31.4449C52.4965 29.1795 57.9248 29.0203 64.3284 30.9631C58.5326 45.9178 58.8734 44.7338 58.6109 45.8428H35.9909C35.7197 44.7274 35.8437 45.3422 30.6403 32.3503ZM47.3327 115.385C35.0182 115.385 14.3592 112.205 14.3592 90.9089C14.3592 79.8352 19.6868 67.1241 27.4388 58.5202C26.6053 63.8288 28.4407 67.6959 33.6909 69.401C34.6552 69.7132 35.6672 69.1777 35.9723 68.2374C36.281 67.2867 35.7602 66.2646 34.8087 65.9559C31.2928 64.8152 30.4282 62.6358 31.0338 58.9711C32.2465 62.9388 35.1413 64.8178 39.1662 65.1045C40.2176 65.1675 41.0334 64.3835 41.1016 63.427C41.1724 62.4288 40.4217 61.5631 39.4242 61.4916C34.4752 61.1386 33.7952 57.5799 34.0746 52.5218C34.9648 51.672 35.6009 50.6192 35.9311 49.4644H58.6903C59.1084 50.8988 59.9794 52.1883 61.2436 53.0967C67.1632 57.3518 72.2646 64.1215 75.7034 71.617V105.292C68.9088 113.766 56.0447 115.385 47.3327 115.385ZM95.2945 115.385C85.3877 115.385 79.3247 112.429 79.3247 110.819V106.158C83.0667 108.298 89.2036 109.399 95.2945 109.399C101.385 109.399 107.522 108.298 111.264 106.158V110.819C111.265 112.429 105.202 115.385 95.2945 115.385Z" fill="#9E1F4E"/>
</g>
<defs>
<clipPath id="clip0_6322_1760">
<rect width="120" height="120" fill="white" transform="translate(0 0.914062)"/>
</clipPath>
</defs>
</svg>
