<svg width="82" height="117" viewBox="0 0 82 117" fill="none" xmlns="http://www.w3.org/2000/svg">
<path d="M79.4716 23.701V105.651C79.4716 110.453 75.5791 114.345 70.7777 114.345H11.2223C6.42071 114.345 2.52844 110.452 2.52844 105.651V23.701C2.52844 18.8993 6.42094 15.0071 11.2223 15.0071H70.7775C75.5791 15.0068 79.4716 18.8993 79.4716 23.701Z" fill="white"/>
<path d="M52.4939 9.56959C50.5448 5.1549 46.1358 2.06982 40.9999 2.06982C35.8641 2.06982 31.4548 5.1549 29.5059 9.56959H25.4838C22.818 9.56959 20.6571 11.7305 20.6571 14.3963V23.1554H61.3425V14.3963C61.3425 11.7305 59.1816 9.56959 56.5158 9.56959H52.4939Z" fill="white"/>
<path d="M52.4939 9.56959C50.5448 5.1549 46.1358 2.06982 40.9999 2.06982C35.8641 2.06982 31.4548 5.1549 29.5059 9.56959H25.4838C22.818 9.56959 20.6571 11.7305 20.6571 14.3963V23.1554H61.3425V14.3963C61.3425 11.7305 59.1816 9.56959 56.5158 9.56959H52.4939Z" fill="#00ADE1" fill-opacity="0.24"/>
<path d="M58.4527 68.8331C60.7314 59.1933 54.764 49.5314 45.1242 47.2527C35.4843 44.974 25.8225 50.9414 23.5438 60.5813C21.2651 70.2211 27.2325 79.883 36.8723 82.1617C46.5122 84.4404 56.174 78.473 58.4527 68.8331Z" fill="white"/>
<path d="M58.4527 68.8331C60.7314 59.1933 54.764 49.5314 45.1242 47.2527C35.4843 44.974 25.8225 50.9414 23.5438 60.5813C21.2651 70.2211 27.2325 79.883 36.8723 82.1617C46.5122 84.4404 56.174 78.473 58.4527 68.8331Z" fill="#00ADE1" fill-opacity="0.24"/>
<path d="M70.7771 13.1965H63.0322C62.4645 10.1096 59.7647 7.75854 56.5165 7.75854H53.618C51.114 3.16597 46.2842 0.258545 41.0002 0.258545C35.7162 0.258545 30.8864 3.16597 28.3824 7.75854H25.4839C22.2354 7.75854 19.5359 10.1096 18.9682 13.1965H11.2233C5.43168 13.1965 0.718872 17.9093 0.718872 23.701V105.651C0.718872 111.442 5.43168 116.155 11.2233 116.155H70.7775C76.5692 116.155 81.282 111.442 81.282 105.651V23.7012C81.2815 17.9096 76.5687 13.1965 70.7771 13.1965ZM22.4684 14.3956C22.4684 12.7332 23.8212 11.3803 25.4836 11.3803H29.5069C30.2248 11.3803 30.874 10.9578 31.1639 10.3015C32.8864 6.40034 36.747 3.88034 41 3.88034C45.2529 3.88034 49.1136 6.40034 50.836 10.3015C51.1259 10.9575 51.7751 11.3803 52.493 11.3803H56.5163C58.1787 11.3803 59.5315 12.7332 59.5315 14.3956V21.3439H22.4684V14.3956ZM77.6597 105.651C77.6597 109.446 74.5721 112.534 70.7768 112.534H11.2229C7.42786 112.534 4.33997 109.446 4.33997 105.651V23.7012C4.33997 19.9062 7.42762 16.8183 11.2229 16.8183H18.8466V23.1546C18.8466 24.1557 19.6566 24.9654 20.6574 24.9654H61.3423C62.3433 24.9654 63.1531 24.1554 63.1531 23.1546V16.8183H70.7768C74.5718 16.8183 77.6597 19.906 77.6597 23.7012V105.651Z" fill="#00ADE1"/>
<path d="M43.6278 10.2469H38.3719C37.3709 10.2469 36.5612 11.0569 36.5612 12.0577C36.5612 13.0585 37.3712 13.8684 38.3719 13.8684H43.6278C44.6288 13.8684 45.4386 13.0585 45.4386 12.0577C45.4386 11.0569 44.6288 10.2469 43.6278 10.2469Z" fill="#00ADE1"/>
<path d="M41 44.926C30.11 44.926 21.2499 53.7858 21.2499 64.676C21.2499 75.5663 30.1097 84.4261 41 84.4261C51.8902 84.4261 60.75 75.5663 60.75 64.676C60.75 53.7858 51.89 44.926 41 44.926ZM41 80.8043C32.1064 80.8043 24.8717 73.5696 24.8717 64.676C24.8717 55.7825 32.1064 48.5478 41 48.5478C49.8935 48.5478 57.1282 55.7825 57.1282 64.676C57.1282 73.5696 49.8935 80.8043 41 80.8043Z" fill="#00ADE1"/>
<path d="M44.8162 59.8393L38.9838 65.6717L37.1836 63.8696C36.4762 63.1622 35.3301 63.1622 34.6228 63.8696C33.9154 64.5753 33.9154 65.723 34.6228 66.4304L37.7034 69.5129C38.043 69.8525 38.5029 70.0435 38.9838 70.0435C39.4647 70.0435 39.9246 69.8525 40.2642 69.5129L47.3768 62.4003C48.0841 61.6929 48.0841 60.5468 47.3768 59.8395C46.6694 59.1319 45.5236 59.1319 44.8162 59.8393Z" fill="#00ADE1"/>
</svg>
