<svg width="118" height="117" viewBox="0 0 118 117" fill="none" xmlns="http://www.w3.org/2000/svg">
<path d="M114.075 43.2116C113.781 41.5379 112.268 40.353 110.556 40.4802L100.972 41.1782C99.1339 36.8947 96.6706 32.9462 93.702 29.4372L98.5709 22.0829C99.5101 20.6685 99.2241 18.7914 97.9416 17.7083L90.8222 11.7393C89.5215 10.6459 87.6005 10.7108 86.371 11.9087L79.823 18.2687C75.6406 16.059 71.082 14.4714 66.2682 13.6154L65.364 5.71045C65.1727 4.03795 63.7569 2.7749 62.0733 2.7749H52.7712C51.0713 2.7749 49.6475 4.06186 49.4762 5.75311L48.6587 13.8208C43.613 14.849 38.8705 16.7005 34.5598 19.2126L29.4024 14.3226C28.1806 13.1643 26.2843 13.1066 24.9947 14.189L17.8688 20.1683C16.5666 21.261 16.3032 23.162 17.259 24.5678L21.391 30.6444C18.1524 34.7406 15.5879 39.3901 13.8598 44.4318L7.39459 44.0355C5.70006 43.9295 4.21741 45.1157 3.92092 46.7678L2.31123 55.918C2.01475 57.5912 3.03147 59.2223 4.68358 59.6882L11.3851 61.5887C11.6171 67.074 12.7967 72.3111 14.7612 77.1475L9.63006 80.9429C8.26389 81.951 7.89053 83.8126 8.72537 85.2688L13.3737 93.313C14.2222 94.7856 16.0494 95.3814 17.6145 94.6762L24.1761 91.7319C27.7693 95.5152 31.9871 98.6943 36.6687 101.108L35.0663 107.779C34.6676 109.429 35.5784 111.095 37.1539 111.674L45.8855 114.848C47.4819 115.431 49.2645 114.713 50.0103 113.167L53.4514 106.059C54.9608 106.206 56.4898 106.286 58.0381 106.286C61.5863 106.286 65.037 105.877 68.3586 105.128L71.8683 112.17C72.6237 113.69 74.3923 114.381 75.9713 113.812L84.7006 110.631C86.2979 110.051 87.2021 108.355 86.7795 106.691L84.5862 98.0022C88.5008 95.2926 91.977 91.9994 94.8976 88.2494L102.816 91.6937C104.372 92.3727 106.171 91.7654 107.015 90.3144L111.657 82.2667C112.508 80.7958 112.11 78.9154 110.717 77.9127L102.97 72.3184C104.116 68.2682 104.742 63.9995 104.742 59.582C104.742 59.2778 104.725 58.9776 104.719 58.6745L113.362 56.1158C114.99 55.6361 115.978 54.0142 115.691 52.3602L114.075 43.2116Z" fill="white"/>
<path d="M59.0001 93.4499C78.0747 93.4499 93.5376 77.9869 93.5376 58.9124C93.5376 39.8378 78.0747 24.3749 59.0001 24.3749C39.9256 24.3749 24.4626 39.8378 24.4626 58.9124C24.4626 77.9869 39.9256 93.4499 59.0001 93.4499Z" fill="white"/>
<path d="M59.0001 93.4499C78.0747 93.4499 93.5376 77.9869 93.5376 58.9124C93.5376 39.8378 78.0747 24.3749 59.0001 24.3749C39.9256 24.3749 24.4626 39.8378 24.4626 58.9124C24.4626 77.9869 39.9256 93.4499 59.0001 93.4499Z" fill="#F03B6B" fill-opacity="0.24"/>
<path d="M58.75 38.9141C47.86 38.9141 38.9999 47.7739 38.9999 58.6641C38.9999 69.5544 47.8597 78.4142 58.75 78.4142C69.6402 78.4142 78.5 69.5544 78.5 58.6641C78.5 47.7739 69.64 38.9141 58.75 38.9141ZM58.75 74.7924C49.8564 74.7924 42.6217 67.5577 42.6217 58.6641C42.6217 49.7705 49.8564 42.5359 58.75 42.5359C67.6435 42.5359 74.8782 49.7705 74.8782 58.6641C74.8782 67.5577 67.6435 74.7924 58.75 74.7924Z" fill="#9E1F4E"/>
<path d="M4.1895 61.43L9.6495 62.9783C9.97036 67.6248 10.951 72.1663 12.5719 76.5139L8.55497 79.4858C6.45942 81.0322 5.85732 83.9052 7.15786 86.1749L11.8043 94.217C13.1253 96.5089 15.9425 97.4134 18.3556 96.3285L23.7636 93.9022C26.9794 97.1171 30.6092 99.8485 34.5811 102.046L33.3061 107.354C32.6942 109.885 34.0798 112.473 36.5354 113.376C45.1001 116.391 45.469 116.863 47.0302 116.863C48.9462 116.863 50.7598 115.781 51.6406 113.955L54.5391 107.968C58.9062 108.284 63.1346 108.016 67.362 107.188L70.2472 112.976C71.4064 115.308 74.1333 116.404 76.5915 115.513L85.3186 112.334C87.8042 111.432 89.187 108.814 88.5354 106.248L86.645 98.7599C89.9096 96.3725 92.8611 93.5898 95.4439 90.4623L102.091 93.3538C104.48 94.3953 107.27 93.482 108.583 91.2193L113.225 83.173C114.549 80.8839 113.926 77.9905 111.777 76.445L105.044 71.5818C106.01 67.7947 106.516 63.9137 106.551 60.0205L113.873 57.8532C116.372 57.1175 117.921 54.624 117.475 52.0457L115.858 42.8966C115.4 40.2918 113.059 38.4622 110.424 38.6736L102.109 39.2793C100.472 35.7327 98.4071 32.3921 95.9506 29.3202L100.079 23.0846C101.52 20.9157 101.104 18.0093 99.1055 16.3213L91.9875 10.3536C89.9628 8.65066 87.005 8.76105 85.1091 10.61L79.4916 16.0656C75.8194 14.2539 71.9358 12.9196 67.9163 12.0882L67.163 5.50512C66.8677 2.91621 64.6794 0.963867 62.0733 0.963867H52.7712C50.1319 0.963867 47.9408 2.94457 47.6736 5.57074L46.9892 12.3315C42.759 13.3182 38.6811 14.8764 34.8347 16.978L30.6479 13.0086C28.7583 11.2173 25.8279 11.1271 23.8306 12.8007L16.7049 18.7813C14.6827 20.4772 14.2777 23.4032 15.7615 25.5864L19.1569 30.5795C16.4131 34.2507 14.2186 38.2642 12.6146 42.5413L7.50825 42.2282C4.91138 42.0611 2.60091 43.8791 2.13755 46.4539L0.529034 55.6011C0.0663776 58.2053 1.64114 60.7121 4.1895 61.43ZM5.70333 47.0879C5.83857 46.3302 6.52224 45.804 7.28442 45.8429L13.7499 46.239C14.551 46.3009 15.3097 45.7897 15.5731 45.0189C17.2177 40.221 19.6529 35.7629 22.8122 31.7671C23.3021 31.1471 23.334 30.2797 22.8891 29.6256L18.7571 23.5501C18.3221 22.91 18.4404 22.0532 19.0329 21.5563L26.1579 15.5762C26.7441 15.0873 27.601 15.1112 28.1562 15.6371L33.3139 20.5269C33.8975 21.0812 34.7764 21.1848 35.4713 20.7772C39.7102 18.3076 44.2693 16.5639 49.0203 15.5957C49.7965 15.4375 50.3801 14.792 50.4608 14.0031L51.2778 5.93637C51.3556 5.16621 51.9976 4.58613 52.7712 4.58613H62.0733C62.8365 4.58613 63.4775 5.15824 63.5642 5.91691L64.4686 13.8219C64.5598 14.6176 65.1629 15.2589 65.9506 15.3986C70.5113 16.2095 74.8946 17.7144 78.9779 19.87C79.6728 20.2361 80.5226 20.1139 81.0849 19.5676L87.6343 13.2064C88.1949 12.6618 89.064 12.6282 89.6583 13.1268L96.7728 19.0918C97.3608 19.5887 97.4855 20.4437 97.0601 21.0831L92.1917 28.4371C91.7478 29.1081 91.8001 29.9924 92.319 30.6069C95.2076 34.0208 97.5598 37.8177 99.3078 41.8923C99.6129 42.6022 100.349 43.0346 101.104 42.9843L110.69 42.2858C111.453 42.2293 112.156 42.7597 112.291 43.5247V43.5266L113.907 52.6696C114.038 53.4282 113.583 54.163 112.848 54.3796L104.205 56.9385C103.425 57.17 102.894 57.8933 102.908 58.7068L102.931 59.5822C102.931 63.7114 102.358 67.8311 101.227 71.8253C101.02 72.5575 101.292 73.3417 101.91 73.7865L109.659 79.3827C110.292 79.839 110.477 80.6886 110.088 81.3625L105.449 89.4053C105.063 90.0693 104.24 90.339 103.538 90.0339L95.6197 86.5897C94.86 86.2564 93.976 86.4845 93.4683 87.1379C90.6486 90.7579 87.3141 93.9118 83.5552 96.5134C82.9346 96.9432 82.6454 97.7134 82.83 98.4454L85.0238 107.137C85.2158 107.894 84.8117 108.665 84.0804 108.93L75.3568 112.108C74.6351 112.376 73.8305 112.05 73.4893 111.362L69.9788 104.32C69.6066 103.572 68.7711 103.177 67.9592 103.361C63.2569 104.421 58.5218 104.731 53.626 104.257C52.8814 104.18 52.152 104.588 51.8213 105.271L48.38 112.38C48.0404 113.083 47.2367 113.415 46.5045 113.146L37.779 109.974C37.0557 109.708 36.6462 108.948 36.8267 108.202L38.4289 101.531C38.6243 100.72 38.2397 99.8811 37.4986 99.4991C33.012 97.1851 28.9721 94.153 25.489 90.4853C25.1398 90.1166 24.6615 89.9211 24.1751 89.9211C23.9258 89.9211 23.6729 89.9734 23.435 90.0793L16.8697 93.0247C16.1604 93.3465 15.3303 93.0812 14.9412 92.4067L10.2968 84.3686C9.91388 83.701 10.0899 82.8547 10.7072 82.3984L15.8384 78.6025C16.5033 78.1107 16.7501 77.2311 16.4389 76.4652C14.5041 71.7027 13.4131 66.6716 13.1947 61.5121C13.1618 60.7304 12.6315 60.0592 11.8798 59.8461L5.17575 57.9451C4.42411 57.733 3.95911 56.9973 4.09528 56.2316L5.70333 47.0879Z" fill="#9E1F4E"/>
<path d="M59.0006 95.2604C79.0425 95.2604 95.3484 78.9545 95.3484 58.9126C95.3484 38.87 79.0425 22.5641 59.0006 22.5641C38.958 22.5641 22.6521 38.87 22.6521 58.9126C22.6521 78.9545 38.958 95.2604 59.0006 95.2604ZM57.1898 26.2775V32.7742C57.1898 33.7742 58.0008 34.5849 59.0006 34.5849C60.0005 34.5849 60.8114 33.774 60.8114 32.7742V26.2775C77.3386 27.1888 90.607 40.3892 91.624 56.8885H84.9251C83.925 56.8885 83.1143 57.6995 83.1143 58.6993C83.1143 59.6994 83.9252 60.5101 84.9251 60.5101H91.6455C90.8334 77.207 77.4806 90.6275 60.8114 91.5465V84.6238C60.8114 83.6237 60.0005 82.813 59.0006 82.813C58.0008 82.813 57.1898 83.6239 57.1898 84.6238V91.5465C40.5206 90.6275 27.1669 77.207 26.355 60.5101H33.0755C34.0755 60.5101 34.8862 59.6992 34.8862 58.6993C34.8862 57.6992 34.0753 56.8885 33.0755 56.8885H26.3766C27.3933 40.3892 40.6626 27.1888 57.1898 26.2775Z" fill="#9E1F4E"/>
</svg>
