<svg width="106" height="118" viewBox="0 0 106 118" fill="none" xmlns="http://www.w3.org/2000/svg">
<path d="M59.6464 4.69961V44.2267H18.7625V4.69961C18.7625 3.18414 19.9911 1.95578 21.5063 1.95578H56.9024C58.4178 1.95555 59.6464 3.18414 59.6464 4.69961Z" fill="white"/>
<path d="M59.6464 4.69961V44.2267H18.7625V4.69961C18.7625 3.18414 19.9911 1.95578 21.5063 1.95578H56.9024C58.4178 1.95555 59.6464 3.18414 59.6464 4.69961Z" fill="#00ADE1" fill-opacity="0.24"/>
<path d="M47.2988 10.6668C47.2988 10.4315 47.3391 10.2079 47.368 9.98056H31.3154C31.344 10.2079 31.3845 10.4317 31.3845 10.6668C31.3845 13.7006 28.9302 16.1545 25.8966 16.1545V44.2265H52.7867V16.1547C49.7532 16.1547 47.2988 13.7006 47.2988 10.6668Z" fill="white"/>
<path d="M82.861 40.0734L50.4383 72.4959L21.5291 43.5867L53.9518 11.1639C55.5296 9.58611 58.0878 9.58611 59.6656 11.1639L82.861 34.3593C84.4388 35.9374 84.4388 38.4953 82.861 40.0734Z" fill="white"/>
<path d="M82.861 40.0734L50.4383 72.4959L21.5291 43.5867L53.9518 11.1639C55.5296 9.58611 58.0878 9.58611 59.6656 11.1639L82.861 34.3593C84.4388 35.9374 84.4388 38.4953 82.861 40.0734Z" fill="#00ADE1" fill-opacity="0.24"/>
<path d="M70.827 34.6453C70.9934 34.4788 71.18 34.3492 71.3612 34.2088L60.0104 22.8581C59.8698 23.039 59.7402 23.2258 59.574 23.3922C57.4288 25.5374 53.9581 25.5372 51.8131 23.3922L26.5735 48.6313L45.5877 67.6455L70.827 42.4061C68.682 40.2609 68.682 36.7903 70.827 34.6453Z" fill="white"/>
<path d="M97.5118 49.3181V106.208C97.5118 111.546 93.1848 115.873 87.8471 115.873H11.6893C6.35163 115.873 2.0246 111.546 2.0246 106.208V49.3181C2.0246 43.9804 6.35163 39.6534 11.6893 39.6534H87.8473C93.185 39.6536 97.5118 43.9806 97.5118 49.3181Z" fill="white"/>
<path d="M97.5118 49.3181V106.208C97.5118 111.546 93.1848 115.873 87.8471 115.873H11.6893C6.35163 115.873 2.0246 111.546 2.0246 106.208V49.3181C2.0246 43.9804 6.35163 39.6534 11.6893 39.6534H87.8473C93.185 39.6536 97.5118 43.9806 97.5118 49.3181Z" fill="#00ADE1" fill-opacity="0.24"/>
<path d="M97.5118 53.129V49.3183C97.5118 43.9806 93.1848 39.6536 87.8471 39.6536H11.6893C6.35163 39.6536 2.0246 43.9806 2.0246 49.3183V53.129H97.5118Z" fill="white"/>
<path d="M2.02484 102.397V106.208C2.02484 111.545 6.35187 115.872 11.6895 115.872H87.8473C93.185 115.872 97.512 111.545 97.512 106.208V102.397H2.02484Z" fill="white"/>
<path d="M103.975 71.6045V83.9217C103.975 85.6727 102.556 87.0923 100.805 87.0923H76.3536C71.2013 87.0923 67.0243 82.9155 67.0243 77.763C67.0243 72.6107 71.2011 68.4337 76.3536 68.4337H100.805C102.556 68.4339 103.975 69.8533 103.975 71.6045Z" fill="white"/>
<path d="M103.975 71.6045V83.9217C103.975 85.6727 102.556 87.0923 100.805 87.0923H76.3536C71.2013 87.0923 67.0243 82.9155 67.0243 77.763C67.0243 72.6107 71.2011 68.4337 76.3536 68.4337H100.805C102.556 68.4339 103.975 69.8533 103.975 71.6045Z" fill="white"/>
<path d="M81.3992 77.763C81.3992 79.7141 79.8291 81.2845 77.878 81.2845C75.9268 81.2845 74.3567 79.7144 74.3567 77.763C74.3567 75.8118 75.9268 74.2417 77.878 74.2417C79.8291 74.2417 81.3992 75.8116 81.3992 77.763Z" fill="white"/>
<path d="M81.3992 77.763C81.3992 79.7141 79.8291 81.2845 77.878 81.2845C75.9268 81.2845 74.3567 79.7144 74.3567 77.763C74.3567 75.8118 75.9268 74.2417 77.878 74.2417C79.8291 74.2417 81.3992 75.8116 81.3992 77.763Z" fill="#00ADE1" fill-opacity="0.24"/>
<path d="M100.805 67.0096H98.9361C98.9361 56.4888 98.9361 56.1492 98.9361 49.3181C98.9361 43.2039 93.9617 38.23 87.8476 38.23H85.355C85.4218 37.8993 85.4684 37.563 85.4684 37.2166C85.4684 35.7571 84.9001 34.3841 83.8677 33.3529L61.0705 10.555V4.69892C61.0705 2.40063 59.2009 0.531494 56.9026 0.531494H21.5066C19.2083 0.531494 17.3387 2.4004 17.3387 4.69892V38.2298H11.6895C5.57539 38.2298 0.601013 43.2037 0.601013 49.3178V106.207C0.601013 112.321 5.57539 117.296 11.6895 117.296H87.8476C93.9617 117.296 98.9361 112.321 98.9361 106.207C98.9361 100.104 98.9361 92.6575 98.9361 88.5156H100.805C103.338 88.5156 105.399 86.4543 105.399 83.9212V71.6038C105.399 69.0709 103.338 67.0096 100.805 67.0096ZM81.8541 35.3664C82.3487 35.8602 82.6205 36.5179 82.6205 37.2163C82.6205 37.57 82.5495 37.9131 82.4164 38.2298H70.6749C70.7448 37.2581 71.1366 36.3494 71.8339 35.6521C71.8344 35.6521 71.8351 35.6509 71.8355 35.6509C72.0929 35.392 72.7306 35.1344 72.7822 34.296C72.8073 33.8889 72.6566 33.4895 72.3678 33.2013L61.0168 21.8507C60.728 21.5615 60.3343 21.4113 59.9195 21.4368C59.0729 21.4898 58.8387 22.113 58.5673 22.3846C56.982 23.9688 54.4039 23.9688 52.8198 22.3846C52.2636 21.8284 51.3624 21.8284 50.8062 22.3846L34.9613 38.2295H28.899L54.9584 12.1703C55.9791 11.1524 57.639 11.1524 58.6585 12.1703L81.8541 35.3664ZM69.3261 34.1873C68.3961 35.3364 67.8823 36.7431 67.8193 38.23H38.9884L51.9172 25.3009C54.3952 26.9195 57.6931 26.7817 60.0315 24.8927L69.3261 34.1873ZM27.3202 35.7815V17.4302C30.2159 16.8217 32.4505 14.3952 32.7692 11.4051H45.9141C46.0768 12.9313 46.7506 14.2945 47.75 15.352L27.3202 35.7815ZM20.1866 4.69892C20.1866 3.97142 20.7791 3.37962 21.5066 3.37962H56.9026C57.6301 3.37962 58.2226 3.97142 58.2226 4.69892V8.76767C56.3982 8.28063 54.3739 8.72876 52.9449 10.1566L49.7577 13.3438C49.1187 12.6311 48.7231 11.699 48.7231 10.6673C48.7231 10.3026 48.9887 9.66673 48.4367 9.03977C48.1665 8.73274 47.777 8.55696 47.3682 8.55696H31.3152C30.9064 8.55696 30.5169 8.73274 30.2466 9.03977C29.6872 9.67517 29.9602 10.2784 29.9602 10.6673C29.9602 12.9079 28.1375 14.7299 25.8964 14.7299C25.1098 14.7299 24.4723 15.3674 24.4723 16.154V38.2298H20.1866V4.69892ZM3.4489 49.3178C3.4489 44.7745 7.1457 41.0777 11.6895 41.0777H87.8476C92.3914 41.0777 96.0882 44.7745 96.0882 49.3178V51.7052H3.4489V49.3178ZM96.0882 106.207C96.0882 110.752 92.3914 114.449 87.8476 114.449H11.6895C7.1457 114.449 3.4489 110.752 3.4489 106.207V103.821H96.0882V106.207ZM96.0882 100.973H3.4489V54.5533H96.0882V67.0096H76.3536C70.4241 67.0096 65.6005 71.8333 65.6005 77.7627C65.6005 83.6922 70.4241 88.5159 76.3536 88.5159H96.0882V100.973ZM102.551 83.9212C102.551 84.8847 101.767 85.6677 100.805 85.6677H76.3536C71.9945 85.6677 68.4484 82.1212 68.4484 77.7625C68.4484 73.4038 71.9945 69.8573 76.3536 69.8573H100.805C101.767 69.8573 102.551 70.6406 102.551 71.6038V83.9212Z" fill="#00ADE1"/>
<path d="M77.8782 72.8177C75.151 72.8177 72.9326 75.036 72.9326 77.7625C72.9326 80.4904 75.151 82.7085 77.8782 82.7085C80.6049 82.7085 82.823 80.4902 82.823 77.7625C82.823 75.036 80.6049 72.8177 77.8782 72.8177ZM77.8782 79.8606C76.7218 79.8606 75.7805 78.9194 75.7805 77.7625C75.7805 76.6066 76.7218 75.6655 77.8782 75.6655C79.0346 75.6655 79.9751 76.6068 79.9751 77.7625C79.9751 78.9196 79.0346 79.8606 77.8782 79.8606Z" fill="#00ADE1"/>
</svg>
